<svg width="1920" height="728" viewBox="0 0 1920 728" fill="none" xmlns="http://www.w3.org/2000/svg">
<g clip-path="url(#clip0_2016_248)">
<rect width="1920" height="728" fill="#EDEAE5"/>
<path d="M1482.21 526.282C1482.2 526.224 1482.19 526.154 1482.18 526.095C1482.62 526 1483.01 525.684 1483.04 525.105C1483.05 524.838 1483.09 524.568 1483.11 524.301C1491.38 518.413 1499.8 512.691 1508.4 507.301C1516.16 502.431 1524.39 498.24 1531.86 492.937C1538.92 487.941 1544.55 481.69 1547.42 473.429C1548.94 469.057 1549.87 464.504 1551.53 460.181C1553.11 456.05 1555.58 452.495 1558.32 449.052C1560.97 445.72 1563.8 442.466 1565.9 438.742C1568.14 434.804 1569.22 430.504 1569.6 426.004C1570.04 420.86 1569.86 415.66 1569.89 410.51C1569.91 405.038 1569.95 399.563 1569.97 394.091C1570.03 383.467 1570.61 372.7 1569.57 362.11C1569.07 356.939 1568.02 351.857 1566.14 346.994C1564.3 342.279 1561.82 337.837 1559.12 333.573C1549.2 317.868 1537.24 303.152 1522.51 291.704C1520.66 290.266 1518.75 288.884 1516.81 287.568C1515.86 286.92 1514.87 288.208 1515.54 289.057C1518.27 292.5 1519.57 296.822 1518.94 301.194C1518.32 305.444 1515.94 308.925 1513.3 312.184C1510.75 315.346 1508.09 318.392 1506.35 322.104C1504.75 325.53 1503.9 329.253 1503.57 333.014C1502.79 341.655 1504.72 350.168 1506.71 358.516C1507.87 363.364 1509.03 368.237 1509.62 373.202C1509.9 375.484 1510.01 377.781 1509.99 380.061C1509.96 380.127 1509.96 380.211 1510 380.301C1509.98 382.679 1509.82 385.054 1509.56 387.424C1508.58 396.446 1506.4 405.362 1506.33 414.477C1506.25 423.1 1507.79 431.641 1509.14 440.129C1510.46 448.513 1511.62 457.093 1510.41 465.563C1509.36 473.014 1506.08 479.651 1501.92 485.832C1494.56 496.717 1484.15 506.778 1481.42 520.102C1481.38 520.312 1481.36 520.52 1481.32 520.73C1480.36 514.95 1479.23 509.208 1477.94 503.493C1481.95 495.287 1485.21 486.745 1487.46 477.878C1489.87 468.311 1491.63 458.216 1491.01 448.325C1490.71 443.338 1489.7 438.476 1487.9 433.804C1486 428.872 1483.41 424.22 1481.74 419.19C1478.71 410.064 1478.91 400.149 1475.19 391.218C1471.64 382.716 1464.14 377.651 1457.87 371.317C1451.1 364.466 1448.3 354.858 1441.54 348.016C1438.54 344.989 1435.02 342.503 1431.17 340.718C1426.89 338.739 1422.3 337.817 1417.68 337.007C1412.89 336.166 1408.1 335.313 1403.61 333.393C1399.18 331.497 1395.15 328.855 1390.83 326.737C1382.75 322.749 1374.04 321.561 1365.12 322.578C1356.06 323.617 1347.33 326.63 1338.95 330.103C1336.81 330.989 1334.69 331.908 1332.58 332.851C1331.86 333.171 1331.71 334.432 1332.48 334.799C1346.96 341.634 1357.59 354.31 1361.51 369.864C1365.57 385.958 1363.65 404.248 1373.9 418.295C1378.79 424.996 1385.81 429.745 1390.89 436.27C1396.36 443.262 1398.5 452.065 1402.14 460.013C1408.05 472.917 1417.77 483.99 1429.56 491.851C1441.32 499.702 1455.41 504.705 1469.62 505.181C1471.4 505.239 1473.18 505.155 1474.96 505.105C1476.16 505.066 1476.25 503.18 1475.03 503.222C1460.78 503.63 1446.38 499.421 1434.23 492.1C1422.02 484.739 1411.61 474.125 1405.22 461.335C1402.68 456.279 1400.94 450.842 1398.71 445.638C1409.35 448.276 1420.06 450.602 1430.74 453.065C1441.58 455.562 1452.42 458.071 1463.27 460.566C1464.48 463.74 1465.65 466.944 1466.75 470.16C1472.32 486.524 1476.34 503.393 1479.08 520.458C1479.42 522.55 1479.73 524.659 1480.03 526.756C1480.22 528.164 1482.39 527.692 1482.18 526.286L1482.21 526.282ZM1435.88 345.601C1439.6 348.259 1442.65 351.65 1445.08 355.512C1447.58 359.459 1449.62 363.673 1452.32 367.493C1456.87 373.927 1463.58 378.304 1468.62 384.274C1467.94 393.74 1467.62 403.23 1467.08 412.707C1466.53 422.86 1465.9 433 1465.13 443.138C1464.76 447.971 1464.36 452.81 1463.95 457.638C1459.77 447.044 1454.97 436.705 1449.5 426.716C1444.13 416.903 1438.09 407.426 1431.45 398.418C1431.47 398.115 1431.49 397.8 1431.52 397.531C1431.65 396.395 1431.77 395.259 1431.9 394.123C1432.76 386.177 1433.37 378.21 1433.77 370.23C1434.19 361.659 1434.34 353.083 1434.23 344.502C1434.78 344.845 1435.33 345.211 1435.86 345.593L1435.88 345.601ZM1385.13 326.511C1389.42 328.021 1393.34 330.371 1397.33 332.505C1401.35 334.659 1405.45 336.427 1409.92 337.44C1414.52 338.493 1419.23 338.999 1423.81 340.139C1427.19 340.98 1430.42 342.254 1433.4 344.001C1433.54 358.922 1432.88 373.841 1431.42 388.697C1431.24 390.501 1431.05 392.294 1430.85 394.09C1430.74 395.031 1430.64 395.982 1430.52 396.926C1430.51 397 1430.51 397.083 1430.5 397.157C1427.09 392.603 1423.52 388.157 1419.78 383.86C1411.92 374.846 1403.34 366.441 1393.93 359.034C1392.44 353.184 1390.82 347.366 1389.08 341.592C1388.19 338.631 1387.27 335.686 1386.32 332.759C1385.62 330.629 1385.04 328.289 1384.11 326.197C1384.45 326.31 1384.79 326.387 1385.12 326.513L1385.13 326.511ZM1337.63 333.075C1351.8 326.888 1367.87 321.459 1383.06 325.876C1383.56 328.386 1384.61 330.866 1385.37 333.273C1386.3 336.215 1387.21 339.162 1388.11 342.11C1389.73 347.424 1391.26 352.776 1392.76 358.132C1389.86 355.894 1386.89 353.725 1383.84 351.691C1370.67 342.927 1355.99 336.234 1340.36 333.471C1339.46 333.318 1338.55 333.189 1337.64 333.073L1337.63 333.075ZM1338.36 335.39C1337.5 334.87 1336.62 334.378 1335.73 333.911C1335.75 333.908 1335.77 333.892 1335.79 333.877C1351.09 336.381 1365.6 341.941 1378.8 350.05C1383.48 352.925 1387.97 356.081 1392.3 359.456C1381.69 360.159 1371.05 360.627 1360.44 361.283C1355.97 350.652 1348.4 341.496 1338.35 335.392L1338.36 335.39ZM1363.8 371.976C1363.08 368.59 1362.06 365.301 1360.79 362.126C1371.65 361.55 1382.51 360.77 1393.37 360.264C1401.22 366.474 1408.47 373.414 1415.2 380.812C1420.5 386.632 1425.47 392.746 1430.13 399.088C1430.01 399.288 1429.86 399.469 1429.65 399.633C1429.36 399.62 1429.06 399.598 1428.77 399.585C1424.86 399.368 1420.94 399.153 1417.03 398.925C1409.1 398.474 1401.18 397.997 1393.26 397.52C1384.7 397.016 1376.13 396.513 1367.56 396.022C1366.07 388.049 1365.45 379.754 1363.82 371.96L1363.8 371.976ZM1431.08 452.074C1420.16 449.555 1409.27 446.887 1398.3 444.566C1397.32 442.363 1396.26 440.196 1394.97 438.126C1390.53 430.969 1383.62 426.095 1378.03 419.925C1372.07 413.315 1369.37 405.358 1367.73 396.99C1384.04 397.975 1400.37 398.897 1416.68 399.893C1420.79 400.137 1424.9 400.429 1429 400.65C1429.75 400.684 1430.49 400.744 1430.96 400.224C1436.23 407.464 1441.08 414.999 1445.52 422.769C1452.23 434.512 1458 446.779 1462.86 459.385C1452.27 456.944 1441.67 454.504 1431.08 452.062L1431.08 452.074ZM1470.15 474.872C1468.52 469.824 1466.73 464.825 1464.83 459.87C1466.58 439.846 1467.92 419.791 1468.72 399.706C1468.91 394.709 1469.04 389.723 1469 384.716C1469.3 385.087 1469.61 385.469 1469.9 385.854C1475.75 393.61 1476.1 403.603 1477.95 412.777C1478.91 417.503 1480.43 421.944 1482.43 426.322C1484.55 430.966 1486.84 435.547 1488.02 440.548C1490.35 450.341 1489.29 460.682 1487.46 470.465C1485.72 479.755 1483.02 488.924 1479.47 497.68C1478.89 499.118 1478.27 500.538 1477.62 501.95C1475.53 492.828 1473.04 483.793 1470.15 474.883L1470.15 474.872ZM1552.36 454.469C1550.15 458.198 1548.85 462.342 1547.64 466.484C1546.7 469.732 1545.77 473.014 1544.37 476.094C1538.02 476.07 1531.69 476.211 1525.34 476.319C1523.77 476.346 1522.21 476.372 1520.64 476.399C1519.85 476.419 1519.07 476.425 1518.28 476.445C1517.82 476.461 1517.2 476.562 1516.65 476.579C1521.48 468.454 1525.89 460.075 1529.73 451.417C1534.87 450.162 1540 448.908 1545.18 447.744C1547.81 447.148 1550.47 446.562 1553.11 446C1555.32 445.533 1557.56 444.966 1559.79 444.532C1557.21 447.757 1554.47 450.901 1552.35 454.459L1552.36 454.469ZM1568.27 419.121C1568.22 423.998 1568.08 428.985 1566.46 433.637C1565.18 437.324 1562.93 440.543 1560.55 443.593C1558.12 444.143 1555.64 444.51 1553.2 445.037C1550.46 445.627 1547.72 446.227 1544.98 446.852C1540.01 447.984 1535.06 449.195 1530.14 450.498C1531.39 447.633 1532.6 444.75 1533.72 441.821C1536.79 433.839 1539.25 425.668 1541.12 417.377C1550.3 414.255 1559.43 410.903 1568.35 407.067C1568.32 411.078 1568.3 415.098 1568.27 419.109L1568.27 419.121ZM1568.49 387.579C1568.46 393.701 1568.41 399.825 1568.36 405.961C1563.77 407.894 1559.16 409.794 1554.51 411.581C1552.04 412.534 1549.56 413.464 1547.07 414.337C1545.98 414.718 1544.89 415.087 1543.81 415.454C1543.26 415.639 1542.71 415.823 1542.17 416.008C1541.83 416.123 1541.58 416.223 1541.36 416.271C1544.4 402.334 1545.71 388.064 1545.26 373.819C1549.15 371.472 1552.73 368.468 1556.39 365.798C1560.07 363.114 1563.77 360.463 1567.46 357.8C1569.11 367.583 1568.55 377.712 1568.49 387.579ZM1553.93 328.541C1559.66 336.857 1565.03 345.567 1567.09 355.582C1567.17 355.989 1567.22 356.4 1567.3 356.796C1563.54 359.505 1559.78 362.214 1556.01 364.913C1552.44 367.459 1548.61 369.845 1545.23 372.649C1544.83 362.243 1543.49 351.859 1541.17 341.622C1540.02 336.52 1538.62 331.482 1537.01 326.514C1540.17 323.807 1543.31 321.078 1546.53 318.444C1549.11 321.732 1551.57 325.109 1553.93 328.541ZM1545.95 317.736C1542.82 320.307 1539.72 322.921 1536.73 325.673C1535.48 321.847 1534.08 318.056 1532.55 314.334C1529.49 306.893 1525.92 299.053 1520.74 292.711C1530.29 299.783 1538.58 308.402 1545.96 317.734L1545.95 317.736ZM1519.15 304.83C1520.54 301.199 1520.63 297.034 1519.58 293.307C1519.55 293.192 1519.49 293.081 1519.46 292.966C1521.34 295.611 1523.16 298.302 1524.77 301.135C1526.85 304.802 1528.69 308.618 1530.37 312.482C1532.11 316.458 1533.69 320.507 1535.11 324.617C1529.22 319.241 1523.09 314.192 1516.55 309.63C1517.58 308.119 1518.49 306.544 1519.16 304.828L1519.15 304.83ZM1506.41 324.961C1507.81 320.956 1510.22 317.65 1512.88 314.387C1513.98 313.033 1515.1 311.652 1516.13 310.226C1522.99 315.036 1529.55 320.314 1535.6 326.133C1536.78 329.635 1537.86 333.178 1538.8 336.755C1541.8 348.187 1543.57 359.953 1544.14 371.782C1541.26 368.483 1538.55 365.025 1535.72 361.695C1532.43 357.817 1529.12 353.977 1525.78 350.154C1519.2 342.648 1512.63 335.019 1505.55 327.978C1505.79 326.969 1506.08 325.974 1506.42 324.982L1506.41 324.961ZM1511.6 378.961C1511.51 374.13 1510.73 369.365 1509.69 364.664C1507.7 355.62 1504.79 346.679 1504.63 337.351C1504.57 334.349 1504.81 331.349 1505.45 328.427C1511.89 335.956 1518.68 343.175 1525.19 350.658C1528.46 354.42 1531.7 358.211 1534.91 362.019C1538.03 365.71 1541.27 369.369 1544.2 373.222C1544.4 378.096 1544.41 382.975 1544.18 387.846C1543.74 397.355 1542.44 406.718 1540.41 415.886C1540.38 415.854 1540.34 415.825 1540.31 415.782C1538.7 414.041 1537.34 411.971 1535.87 410.11C1534.33 408.154 1532.77 406.201 1531.21 404.26C1528.08 400.378 1524.9 396.518 1521.68 392.711C1518.39 388.821 1515.16 384.775 1511.57 381.136C1511.59 380.414 1511.61 379.691 1511.59 378.963L1511.6 378.961ZM1510.59 392.533C1511.05 389.148 1511.43 385.74 1511.56 382.314C1513.56 384.807 1515.71 387.192 1517.77 389.64C1520.31 392.645 1522.82 395.68 1525.33 398.715C1530.36 404.805 1535.27 410.976 1540.13 417.19C1537.51 428.613 1533.75 439.729 1529.05 450.484C1522.44 439.612 1515.75 428.861 1508.4 418.47C1507.98 409.724 1509.43 401.188 1510.6 392.531L1510.59 392.533ZM1512.18 445.92C1511.02 437.208 1509.08 428.589 1508.45 419.817C1508.44 419.746 1508.45 419.673 1508.44 419.591C1515.64 429.838 1522.61 440.388 1528.65 451.364C1524.85 459.932 1520.43 468.253 1515.54 476.304C1514.5 475.49 1514.04 472.913 1513.68 471.88C1513.23 470.609 1512.77 469.342 1512.18 468.13C1513.6 460.824 1513.14 453.282 1512.18 445.932L1512.18 445.92ZM1502.06 489.503C1506.09 483.835 1509.74 477.761 1511.54 470.98C1511.64 470.616 1511.7 470.259 1511.79 469.897C1512.04 470.636 1512.32 471.37 1512.59 472.105C1512.94 473.019 1513.3 473.934 1513.63 474.838C1513.88 475.481 1514.05 476.317 1514.43 476.891C1514.56 477.097 1514.73 477.227 1514.92 477.34C1514.47 478.072 1514.04 478.814 1513.58 479.536C1504.68 493.671 1494.64 506.993 1483.85 519.731C1486.56 508.258 1495.36 498.914 1502.06 489.503ZM1483.29 522.628C1495.26 508.463 1506.47 493.522 1516.04 477.614C1516.48 477.625 1516.95 477.586 1517.36 477.578C1519.22 477.564 1521.09 477.537 1522.94 477.5C1529.93 477.385 1536.92 477.305 1543.91 477.032C1543.55 477.763 1543.18 478.483 1542.74 479.19C1540.59 482.729 1537.74 485.747 1534.57 488.396C1527.8 494.041 1519.84 498.056 1512.34 502.62C1503.7 507.873 1495.12 513.404 1487.18 519.671C1485.86 520.712 1484.57 521.762 1483.26 522.813C1483.28 522.751 1483.29 522.688 1483.29 522.616L1483.29 522.628Z" fill="#7F694F"/>
<path d="M2023.28 375.755C2023.22 375.728 2023.16 375.696 2023.11 375.669C2023.29 375.258 2023.27 374.755 2022.82 374.391C2022.61 374.219 2022.42 374.027 2022.21 373.856C2022.37 363.708 2022.74 353.531 2023.49 343.41C2024.17 334.272 2025.66 325.159 2025.82 315.996C2025.97 307.352 2024.27 299.114 2019.31 291.911C2016.68 288.096 2013.57 284.653 2011.07 280.755C2008.67 277.032 2007.27 272.937 2006.12 268.691C2005 264.583 2004.06 260.376 2002.3 256.474C2000.46 252.338 1997.63 248.924 1994.23 245.949C1990.34 242.552 1986.05 239.611 1981.92 236.54C1977.52 233.281 1973.13 230.011 1968.73 226.752C1960.21 220.411 1951.88 213.568 1942.73 208.132C1938.27 205.476 1933.55 203.315 1928.51 201.95C1923.63 200.635 1918.58 200.006 1913.55 199.653C1895.01 198.35 1876.07 199.273 1858.13 204.36C1855.87 205.001 1853.63 205.717 1851.42 206.501C1850.33 206.888 1850.78 208.449 1851.87 208.406C1856.26 208.245 1860.51 209.756 1863.66 212.855C1866.72 215.869 1868.11 219.853 1869.18 223.907C1870.21 227.84 1871.09 231.787 1873.05 235.384C1874.86 238.704 1877.36 241.591 1880.19 244.089C1886.7 249.835 1894.7 253.318 1902.61 256.657C1907.2 258.594 1911.81 260.542 1916.16 263.007C1918.17 264.137 1920.08 265.409 1921.91 266.771C1921.94 266.84 1922.01 266.888 1922.11 266.91C1924.01 268.336 1925.83 269.867 1927.59 271.482C1934.27 277.616 1940.17 284.647 1947.47 290.109C1954.37 295.276 1962.17 299.091 1969.8 303.036C1977.34 306.933 1984.94 311.084 1991.05 317.07C1996.43 322.334 1999.84 328.904 2002.35 335.92C2006.77 348.296 2008.71 362.64 2017.83 372.73C2017.98 372.885 2018.13 373.029 2018.28 373.184C2013.05 370.537 2007.76 368.042 2002.39 365.696C1998.15 357.609 1993.2 349.919 1987.38 342.862C1981.1 335.249 1974.01 327.857 1965.68 322.492C1961.48 319.785 1956.96 317.716 1952.13 316.401C1947.03 315.015 1941.75 314.347 1936.71 312.712C1927.56 309.748 1919.69 303.715 1910.29 301.421C1901.34 299.248 1892.81 302.293 1884 303.594C1874.46 304.995 1865.07 301.557 1855.55 302.953C1851.33 303.576 1847.25 304.941 1843.53 306.988C1839.4 309.264 1835.94 312.414 1832.55 315.655C1829.04 319.016 1825.51 322.372 1821.3 324.859C1817.15 327.298 1812.63 328.988 1808.37 331.21C1800.37 335.361 1794.26 341.674 1789.79 349.469C1785.27 357.379 1782.52 366.201 1780.36 375.012C1779.81 377.257 1779.29 379.508 1778.8 381.769C1778.64 382.535 1779.56 383.407 1780.31 383.006C1794.39 375.384 1810.91 374.323 1825.76 380.378C1841.13 386.634 1854.73 399.015 1872.12 399.079C1880.41 399.107 1888.4 396.263 1896.67 396.026C1905.54 395.764 1913.9 399.255 1922.46 401.028C1936.36 403.908 1951.04 402.629 1964.35 397.79C1977.65 392.957 1990.02 384.567 1998.82 373.403C1999.92 372 2000.9 370.521 2001.92 369.058C2002.6 368.064 2001.13 366.875 2000.45 367.88C1992.33 379.607 1980.41 388.72 1967.32 394.175C1954.16 399.65 1939.44 401.75 1925.35 399.328C1919.77 398.377 1914.36 396.564 1908.85 395.275C1917.27 388.269 1925.49 381.011 1933.8 373.866C1942.23 366.611 1950.67 359.361 1959.11 352.095C1962.38 352.999 1965.66 353.955 1968.9 354.975C1985.39 360.177 2001.36 366.925 2016.73 374.827C2018.62 375.792 2020.5 376.794 2022.37 377.791C2023.62 378.469 2024.52 376.445 2023.27 375.777L2023.28 375.755ZM1850.25 306.081C1854.6 304.659 1859.13 304.214 1863.69 304.536C1868.35 304.859 1872.95 305.712 1877.63 305.802C1885.5 305.948 1893.01 303.126 1900.8 302.605C1908.03 308.759 1915.48 314.636 1922.8 320.68C1930.65 327.142 1938.45 333.657 1946.17 340.276C1949.85 343.434 1953.51 346.622 1957.15 349.816C1946.14 346.91 1934.97 344.653 1923.68 343.146C1912.59 341.663 1901.38 340.914 1890.19 340.933C1889.95 340.735 1889.71 340.532 1889.51 340.35C1888.67 339.575 1887.83 338.799 1886.99 338.024C1881.1 332.628 1875.04 327.416 1868.85 322.372C1862.19 316.958 1855.37 311.755 1848.39 306.762C1848.99 306.524 1849.61 306.297 1850.23 306.096L1850.25 306.081ZM1804.82 335.667C1808.57 333.107 1812.79 331.34 1816.87 329.387C1820.99 327.424 1824.84 325.166 1828.3 322.165C1831.87 319.084 1835.07 315.588 1838.7 312.577C1841.38 310.346 1844.32 308.499 1847.5 307.13C1859.6 315.86 1871.23 325.226 1882.33 335.202C1883.68 336.411 1885.02 337.625 1886.35 338.849C1887.04 339.496 1887.75 340.138 1888.43 340.795C1888.49 340.849 1888.56 340.897 1888.61 340.951C1882.92 341.004 1877.22 341.243 1871.54 341.715C1859.63 342.707 1847.77 344.648 1836.23 347.84C1830.64 345.576 1824.99 343.433 1819.31 341.417C1816.39 340.379 1813.48 339.378 1810.55 338.414C1808.42 337.712 1806.19 336.797 1803.96 336.305C1804.25 336.096 1804.51 335.87 1804.81 335.677L1804.82 335.667ZM1781.97 377.833C1785.38 362.754 1790.52 346.585 1803.08 336.959C1805.39 338.049 1808.01 338.671 1810.4 339.482C1813.33 340.473 1816.24 341.484 1819.15 342.506C1824.39 344.349 1829.61 346.287 1834.82 348.246C1831.29 349.261 1827.79 350.368 1824.34 351.623C1809.48 357.04 1795.39 364.911 1783.91 375.87C1783.25 376.505 1782.61 377.161 1781.98 377.822L1781.97 377.833ZM1784.27 378.611C1783.34 378.999 1782.42 379.42 1781.52 379.862C1781.53 379.84 1781.53 379.814 1781.53 379.788C1792.61 368.941 1805.68 360.547 1820.03 354.712C1825.12 352.646 1830.32 350.894 1835.6 349.407C1829.89 358.371 1823.97 367.216 1818.21 376.158C1807 373.467 1795.14 374.141 1784.27 378.621L1784.27 378.611ZM1828.81 379.787C1825.66 378.36 1822.41 377.229 1819.1 376.373C1825.06 367.284 1830.87 358.073 1836.89 349.016C1846.54 346.373 1856.43 344.637 1866.38 343.595C1874.21 342.772 1882.07 342.394 1889.95 342.392C1890.03 342.61 1890.09 342.838 1890.1 343.098C1889.92 343.324 1889.72 343.555 1889.54 343.781C1887.05 346.802 1884.56 349.834 1882.06 352.85C1877 358.972 1871.92 365.072 1866.85 371.172C1861.37 377.771 1855.89 384.381 1850.42 390.997C1843.11 387.473 1836.06 383.056 1828.81 379.76L1828.81 379.787ZM1933.2 373.003C1924.7 380.316 1916.1 387.511 1907.74 394.974C1905.38 394.46 1903.01 394.03 1900.58 393.839C1892.18 393.185 1884.16 395.864 1875.88 396.71C1867.02 397.602 1859.02 395.062 1851.3 391.434C1861.75 378.871 1872.17 366.26 1882.63 353.703C1885.26 350.54 1887.93 347.398 1890.54 344.224C1891.01 343.641 1891.5 343.079 1891.35 342.395C1900.31 342.44 1909.25 342.987 1918.14 344.011C1931.58 345.564 1944.88 348.179 1957.92 351.724C1949.68 358.812 1941.43 365.91 1933.19 372.998L1933.2 373.003ZM1974.71 355.023C1969.68 353.351 1964.59 351.828 1959.47 350.431C1944.37 337.163 1929.01 324.199 1913.29 311.667C1909.38 308.55 1905.44 305.496 1901.39 302.557C1901.86 302.535 1902.35 302.518 1902.83 302.512C1912.55 302.39 1920.81 308.024 1929.3 311.967C1933.67 313.992 1938.15 315.394 1942.86 316.379C1947.86 317.421 1952.91 318.287 1957.64 320.295C1966.9 324.223 1974.61 331.198 1981.41 338.466C1987.87 345.37 1993.66 352.973 1998.61 361.023C1999.42 362.344 2000.2 363.685 2000.95 365.042C1992.36 361.326 1983.61 357.979 1974.72 355.028L1974.71 355.023ZM2006.96 276.699C2008.65 280.69 2011.22 284.187 2013.85 287.615C2015.9 290.302 2017.99 292.995 2019.65 295.943C2015.87 301.044 2012.23 306.231 2008.56 311.412C2007.65 312.69 2006.75 313.968 2005.84 315.246C2005.39 315.894 2004.94 316.525 2004.48 317.172C2004.22 317.556 2003.94 318.114 2003.62 318.567C1999.94 309.861 1995.8 301.347 1991.09 293.13C1993.13 288.24 1995.16 283.362 1997.28 278.505C1998.37 276.027 1999.46 273.543 2000.58 271.081C2001.51 269.02 2002.38 266.883 2003.35 264.828C2004.42 268.819 2005.33 272.888 2006.94 276.704L2006.96 276.699ZM1987.89 242.948C1991.8 245.874 1995.73 248.939 1998.52 252.998C2000.73 256.216 2002 259.934 2003.04 263.66C2002.05 265.943 2000.87 268.161 1999.86 270.434C1998.71 272.996 1997.57 275.554 1996.45 278.132C1994.42 282.81 1992.46 287.514 1990.6 292.252C1989.03 289.548 1987.42 286.865 1985.73 284.228C1981.11 277.028 1975.99 270.205 1970.41 263.79C1973.34 254.541 1976.04 245.206 1978.23 235.744C1981.44 238.145 1984.67 240.541 1987.88 242.942L1987.89 242.948ZM1962.61 224.086C1967.52 227.741 1972.43 231.408 1977.35 235.079C1976.18 239.923 1974.99 244.762 1973.67 249.568C1972.98 252.124 1972.26 254.669 1971.48 257.198C1971.15 258.301 1970.8 259.399 1970.45 260.487C1970.28 261.036 1970.1 261.585 1969.93 262.134C1969.82 262.477 1969.76 262.736 1969.66 262.941C1960.23 252.24 1949.51 242.728 1937.77 234.658C1938.18 230.135 1937.88 225.474 1937.9 220.937C1937.91 216.384 1937.96 211.837 1938.01 207.284C1946.86 211.749 1954.69 218.2 1962.61 224.086ZM1906.42 200.858C1916.51 201.168 1926.71 201.997 1936 206.27C1936.37 206.448 1936.74 206.647 1937.1 206.82C1937.06 211.452 1937.01 216.084 1936.96 220.722C1936.89 225.105 1936.55 229.607 1936.8 233.993C1928.18 228.148 1919.02 223.077 1909.4 218.886C1904.61 216.793 1899.72 214.933 1894.77 213.288C1894.45 209.14 1894.12 204.992 1893.9 200.839C1898.07 200.713 1902.26 200.725 1906.42 200.858ZM1892.98 200.889C1893.2 204.936 1893.47 208.983 1893.92 213.016C1890.09 211.763 1886.21 210.642 1882.31 209.669C1874.5 207.734 1866.07 205.963 1857.89 206.38C1869.24 202.879 1881.1 201.299 1892.99 200.878L1892.98 200.889ZM1866.71 214.842C1864.61 211.572 1861.31 209.032 1857.68 207.67C1857.57 207.627 1857.45 207.605 1857.34 207.561C1860.58 207.612 1863.83 207.742 1867.07 208.121C1871.25 208.615 1875.41 209.4 1879.52 210.332C1883.76 211.287 1887.95 212.411 1892.11 213.698C1884.29 215.257 1876.59 217.209 1869.04 219.782C1868.44 218.05 1867.7 216.386 1866.72 214.831L1866.71 214.842ZM1875.39 237.03C1872.99 233.53 1871.75 229.627 1870.7 225.552C1870.26 223.864 1869.81 222.145 1869.27 220.472C1877.21 217.792 1885.35 215.627 1893.62 214.204C1897.14 215.327 1900.63 216.556 1904.07 217.916C1915.07 222.263 1925.59 227.807 1935.46 234.357C1931.1 234.719 1926.71 234.853 1922.35 235.163C1917.27 235.519 1912.22 235.912 1907.16 236.342C1897.21 237.198 1887.18 237.97 1877.31 239.504C1876.64 238.72 1876.01 237.894 1875.41 237.031L1875.39 237.03ZM1921.98 264.823C1918.03 262.034 1913.73 259.845 1909.32 257.899C1900.86 254.142 1891.93 251.196 1884.32 245.8C1881.87 244.067 1879.59 242.104 1877.61 239.857C1887.49 239.127 1897.33 237.925 1907.22 237.115C1912.19 236.706 1917.16 236.338 1922.13 236.008C1926.95 235.682 1931.82 235.234 1936.66 235.156C1940.7 237.888 1944.64 240.767 1948.43 243.836C1955.83 249.817 1962.6 256.418 1968.79 263.479C1968.75 263.483 1968.7 263.499 1968.65 263.498C1966.29 263.768 1963.82 263.634 1961.45 263.713C1958.96 263.796 1956.46 263.9 1953.97 264.01C1948.99 264.229 1944 264.506 1939.02 264.847C1933.94 265.197 1928.77 265.399 1923.71 266.136C1923.14 265.697 1922.57 265.247 1921.97 264.834L1921.98 264.823ZM1932.31 273.675C1929.86 271.301 1927.34 268.975 1924.65 266.844C1927.85 266.709 1931.04 266.389 1934.24 266.174C1938.16 265.909 1942.09 265.685 1946.02 265.462C1953.91 265.015 1961.79 264.712 1969.68 264.477C1977.33 273.351 1984.06 282.964 1989.94 293.124C1977.26 292.013 1964.64 291.034 1951.92 290.801C1944.62 285.964 1938.6 279.736 1932.32 273.664L1932.31 273.675ZM1976.27 304.016C1968.57 299.785 1960.47 296.243 1953.03 291.558C1952.97 291.525 1952.92 291.472 1952.84 291.434C1965.37 291.697 1977.99 292.332 1990.41 293.965C1995.07 302.103 1999.16 310.59 2002.74 319.3C2001.47 319.659 1999.12 318.499 1998.08 318.177C1996.79 317.784 1995.49 317.412 1994.17 317.162C1989.12 311.694 1982.78 307.597 1976.28 304.022L1976.27 304.016ZM2005.39 337.981C2003.22 331.375 2000.49 324.833 1996.09 319.366C1995.85 319.073 1995.6 318.811 1995.36 318.528C1996.1 318.763 1996.86 318.976 1997.62 319.189C1998.56 319.447 1999.51 319.704 2000.44 319.967C2001.1 320.148 2001.88 320.504 2002.56 320.537C2002.81 320.555 2003.01 320.499 2003.21 320.416C2003.54 321.208 2003.88 321.995 2004.19 322.792C2010.3 338.339 2015.1 354.313 2018.97 370.549C2011.33 361.574 2009.01 348.952 2005.39 337.981ZM2020.98 372.717C2016.65 354.682 2011.25 336.801 2004.1 319.672C2004.37 319.32 2004.61 318.925 2004.85 318.583C2005.94 317.079 2007.02 315.559 2008.09 314.044C2012.14 308.347 2016.21 302.667 2020.13 296.869C2020.51 297.592 2020.87 298.321 2021.18 299.091C2022.76 302.918 2023.5 307.006 2023.76 311.128C2024.3 319.926 2022.82 328.717 2022.06 337.461C2021.17 347.539 2020.55 357.725 2020.89 367.835C2020.95 369.513 2021.03 371.177 2021.11 372.85C2021.06 372.802 2021.02 372.754 2020.96 372.711L2020.98 372.717Z" fill="#7F694F"/>
<path d="M399.888 598.042C399.888 598.042 399.965 597.94 399.998 597.891C400.372 598.137 400.874 598.176 401.303 597.788C401.503 597.606 401.726 597.453 401.925 597.271C411.947 598.911 421.955 600.768 431.853 602.989C440.797 604.991 449.594 607.796 458.636 609.288C467.16 610.697 475.57 610.227 483.404 606.373C487.555 604.328 491.423 601.754 495.647 599.845C499.678 598.029 503.939 597.236 508.297 596.722C512.532 596.214 516.822 595.899 520.944 594.741C525.305 593.512 529.093 591.217 532.537 588.289C536.461 584.943 540.009 581.127 543.653 577.477C547.522 573.612 551.398 569.731 555.268 565.866C562.784 558.362 570.776 551.107 577.497 542.866C580.784 538.839 583.602 534.475 585.677 529.704C587.698 525.065 589.049 520.158 590.141 515.228C594.142 497.079 595.988 478.212 593.59 459.719C593.294 457.391 592.9 455.071 592.462 452.767C592.241 451.628 590.627 451.851 590.502 452.935C590.017 457.303 587.905 461.284 584.372 463.954C580.946 466.537 576.801 467.34 572.637 467.799C568.596 468.253 564.56 468.541 560.715 469.954C557.16 471.266 553.949 473.311 551.06 475.745C544.432 481.335 539.816 488.744 535.359 496.073C532.768 500.333 530.17 504.609 527.095 508.562C525.685 510.381 524.146 512.082 522.528 513.698C522.449 513.725 522.394 513.782 522.361 513.868C520.676 515.545 518.892 517.119 517.044 518.614C509.998 524.337 502.18 529.137 495.716 535.56C489.596 541.638 484.68 548.8 479.661 555.773C474.701 562.663 469.494 569.563 462.673 574.744C456.675 579.3 449.684 581.72 442.365 583.163C429.471 585.732 415.006 585.55 403.69 593.085C403.508 593.211 403.342 593.344 403.167 593.455C406.541 588.671 409.783 583.795 412.897 578.839C421.521 575.814 429.85 572.051 437.684 567.332C446.138 562.235 454.476 556.301 461.005 548.84C464.295 545.076 467 540.926 469.011 536.329C471.122 531.483 472.56 526.357 474.909 521.617C479.181 512.999 486.305 506.096 489.938 497.124C493.398 488.587 491.624 479.704 491.631 470.79C491.636 461.15 496.41 452.357 496.423 442.739C496.42 438.479 495.672 434.239 494.186 430.257C492.537 425.842 489.929 421.949 487.221 418.128C484.414 414.166 481.599 410.183 479.761 405.658C477.947 401.2 476.942 396.474 475.374 391.931C472.436 383.415 467.084 376.428 460.03 370.885C452.869 365.255 444.543 361.246 436.142 357.814C434.008 356.939 431.852 356.11 429.689 355.296C428.955 355.025 427.947 355.802 428.253 356.61C433.736 371.649 432.368 388.143 424.215 401.959C415.776 416.251 401.545 427.908 398.94 445.096C397.696 453.3 399.347 461.612 398.383 469.831C397.353 478.649 392.67 486.408 389.663 494.624C384.787 507.952 383.901 522.661 386.748 536.536C389.591 550.399 396.072 563.874 405.843 574.199C407.069 575.49 408.388 576.685 409.688 577.9C410.563 578.724 411.962 577.447 411.071 576.617C400.663 566.877 393.375 553.745 389.893 539.991C386.399 526.166 386.47 511.314 390.927 497.718C392.692 492.341 395.268 487.246 397.348 481.985C403.049 491.345 409.028 500.533 414.881 509.789C420.825 519.202 426.766 528.604 432.711 538.016C431.336 541.127 429.916 544.215 428.436 547.274C420.886 562.824 411.867 577.643 401.8 591.687C400.557 593.41 399.31 595.122 398.037 596.831C397.191 597.965 399.06 599.158 399.891 598.016L399.888 598.042ZM494.084 437.06C494.861 441.565 494.629 446.121 493.658 450.57C492.661 455.128 491.132 459.558 490.369 464.173C489.074 471.943 490.764 479.79 490.151 487.574C482.999 493.822 476.091 500.337 469.058 506.707C461.513 513.519 453.931 520.293 446.261 526.96C442.592 530.141 438.912 533.289 435.217 536.43C439.7 525.971 443.573 515.236 446.709 504.293C449.796 493.53 452.172 482.564 453.783 471.487C454.012 471.282 454.242 471.077 454.457 470.902C455.35 470.19 456.239 469.467 457.116 468.748C463.306 463.699 469.359 458.472 475.256 453.087C481.59 447.298 487.726 441.303 493.688 435.13C493.835 435.768 493.966 436.399 494.08 437.049L494.084 437.06ZM471.463 387.789C473.453 391.885 474.577 396.306 475.911 400.643C477.252 405.002 478.92 409.147 481.377 413.004C483.904 416.988 486.898 420.659 489.343 424.697C491.157 427.676 492.55 430.851 493.44 434.201C483.033 444.891 472.073 455.034 460.585 464.558C459.192 465.707 457.799 466.856 456.388 467.986C455.643 468.584 454.91 469.178 454.165 469.775C454.106 469.821 454.05 469.878 453.991 469.923C454.774 464.286 455.37 458.614 455.738 452.934C456.503 441.011 456.316 428.981 454.843 417.11C457.904 411.896 460.838 406.639 463.67 401.305C465.117 398.583 466.53 395.835 467.912 393.073C468.908 391.072 470.143 389 470.965 386.859C471.126 387.179 471.302 387.469 471.463 387.789ZM433.092 359.026C447.515 364.599 462.756 372.055 470.45 385.885C469.033 388.008 468.04 390.522 466.886 392.753C465.473 395.501 464.056 398.237 462.609 400.959C460.008 405.875 457.343 410.751 454.636 415.615C454.147 411.975 453.564 408.355 452.828 404.763C449.645 389.276 443.915 374.174 434.745 361.22C434.223 360.475 433.666 359.741 433.092 359.026ZM431.986 361.178C431.744 360.196 431.458 359.23 431.15 358.272C431.176 358.276 431.195 358.294 431.222 358.297C440.333 370.832 446.725 384.99 450.4 400.056C451.706 405.392 452.671 410.797 453.371 416.231C445.332 409.264 437.455 402.115 429.453 395.111C433.764 384.411 434.827 372.585 431.971 361.17L431.986 361.178ZM424.308 405.073C426.18 402.165 427.776 399.116 429.097 395.961C437.219 403.2 445.484 410.277 453.557 417.558C454.754 427.482 455.038 437.522 454.604 447.513C454.269 455.375 453.488 463.217 452.346 470.997C452.126 471.048 451.883 471.07 451.624 471.048C451.423 470.829 451.233 470.607 451.032 470.389C448.403 467.481 445.774 464.572 443.146 461.664C437.824 455.77 432.542 449.849 427.239 443.936C421.506 437.545 415.777 431.166 410.025 424.794C414.572 418.086 419.978 411.756 424.293 405.065L424.308 405.073ZM415.762 509.332C409.772 499.86 403.9 490.297 397.746 480.932C398.604 478.678 399.371 476.381 399.913 474.011C401.79 465.788 400.311 457.466 400.693 449.161C401.093 440.261 404.783 432.71 409.497 425.617C420.394 437.807 431.346 449.94 442.242 462.129C444.989 465.197 447.695 468.291 450.46 471.34C450.965 471.891 451.452 472.461 452.152 472.418C450.792 481.264 448.956 490.037 446.64 498.689C443.149 511.748 438.607 524.522 433.19 536.909C427.387 527.723 421.569 518.53 415.755 509.347L415.762 509.332ZM427.478 553.022C429.865 548.281 432.116 543.475 434.246 538.61C449.579 525.617 464.649 512.302 479.344 498.591C482.995 495.178 486.603 491.716 490.098 488.144C490.052 488.624 490.006 489.103 489.933 489.58C488.633 499.207 481.852 506.555 476.713 514.372C474.066 518.401 472.029 522.632 470.366 527.146C468.601 531.946 467.006 536.8 464.335 541.189C459.101 549.779 451.071 556.383 442.879 562.053C435.102 567.441 426.743 572.054 418.046 575.769C416.616 576.379 415.182 576.941 413.733 577.495C418.661 569.539 423.252 561.374 427.474 553.011L427.478 553.022ZM500.266 596.371C496.061 597.47 492.239 599.489 488.459 601.594C485.497 603.239 482.531 604.91 479.369 606.123C474.889 601.64 470.276 597.279 465.692 592.895C464.562 591.81 463.421 590.727 462.295 589.653C461.73 589.11 461.165 588.567 460.593 588.039C460.256 587.718 459.742 587.358 459.336 586.985C468.489 584.615 477.512 581.764 486.335 578.306C490.867 581.028 495.403 583.761 499.898 586.559C502.201 587.989 504.485 589.438 506.761 590.902C508.668 592.131 510.652 593.296 512.545 594.555C508.436 595.032 504.281 595.337 500.27 596.382L500.266 596.371ZM536.432 582.446C532.966 585.883 529.364 589.33 524.941 591.495C521.437 593.204 517.575 593.92 513.733 594.405C511.619 593.085 509.601 591.606 507.502 590.256C505.146 588.744 502.767 587.24 500.386 585.763C496.053 583.072 491.694 580.452 487.273 577.904C490.182 576.754 493.061 575.552 495.923 574.268C503.712 570.756 511.222 566.689 518.376 562.107C527.106 566.339 535.945 570.383 544.969 573.949C542.12 576.782 539.286 579.624 536.432 582.446ZM558.795 560.189C554.46 564.517 550.11 568.839 545.771 573.156C541.154 571.303 536.546 569.409 531.975 567.402C529.55 566.341 527.133 565.264 524.744 564.127C523.708 563.635 522.669 563.132 521.64 562.625C521.124 562.366 520.611 562.119 520.095 561.86C519.775 561.695 519.526 561.594 519.334 561.473C531.294 553.701 542.267 544.494 551.973 534.061C556.393 535.13 561.041 535.518 565.523 536.19C570.021 536.868 574.519 537.585 579.013 538.29C573.298 546.395 565.779 553.209 558.791 560.178L558.795 560.189ZM589.968 507.994C588.185 517.927 585.878 527.904 580.296 536.465C580.064 536.808 579.814 537.134 579.583 537.477C575.006 536.751 570.422 536.04 565.852 535.298C561.523 534.599 557.126 533.597 552.751 533.201C559.783 525.528 566.151 517.208 571.703 508.308C574.471 503.873 577.021 499.313 579.386 494.655C583.534 494.941 587.682 495.228 591.828 495.615C591.343 499.77 590.712 503.9 589.983 508.001L589.968 507.994ZM591.913 494.708C587.88 494.319 583.832 493.998 579.787 493.863C581.578 490.257 583.26 486.589 584.795 482.859C587.846 475.417 590.837 467.333 591.61 459.18C593.414 470.923 593.241 482.89 591.925 494.704L591.913 494.708ZM581.944 466.667C585.487 465.07 588.478 462.175 590.354 458.777C590.416 458.668 590.456 458.566 590.507 458.461C589.98 461.665 589.374 464.859 588.524 467.999C587.421 472.068 586.032 476.074 584.518 480.009C582.958 484.062 581.224 488.049 579.351 491.96C578.951 484.002 578.144 476.098 576.701 468.24C578.497 467.891 580.262 467.415 581.929 466.659L581.944 466.667ZM558.724 472.013C562.537 470.148 566.587 469.503 570.766 469.052C572.505 468.86 574.269 468.673 576.01 468.38C577.499 476.623 578.444 484.993 578.654 493.38C577.024 496.692 575.307 499.972 573.451 503.175C567.543 513.427 560.514 523.017 552.61 531.821C552.897 527.46 553.394 523.088 553.734 518.733C554.128 513.67 554.47 508.6 554.786 503.527C555.393 493.565 556.1 483.53 556.022 473.542C556.895 472.988 557.809 472.482 558.739 472.02L558.724 472.013ZM524.415 514.044C527.75 510.552 530.551 506.607 533.123 502.541C538.071 494.716 542.292 486.316 548.744 479.571C550.813 477.41 553.097 475.437 555.61 473.798C554.885 483.676 554.641 493.601 553.995 503.489C553.671 508.465 553.309 513.441 552.917 518.403C552.527 523.227 552.269 528.104 551.636 532.912C548.34 536.515 544.922 539.986 541.334 543.29C534.339 549.734 526.821 555.471 518.917 560.565C518.913 560.516 518.909 560.467 518.915 560.415C518.993 558.044 519.493 555.627 519.75 553.268C520.029 550.79 520.292 548.304 520.555 545.819C521.071 540.852 521.522 535.882 521.91 530.909C522.312 525.83 522.862 520.676 522.867 515.573C523.392 515.064 523.909 514.571 524.415 514.044ZM514.162 522.976C516.871 520.892 519.542 518.735 522.039 516.4C521.706 519.586 521.557 522.797 521.31 525.978C520.995 529.898 520.653 533.815 520.289 537.74C519.575 545.596 518.735 553.446 517.8 561.279C507.912 567.552 497.409 572.811 486.492 577.135C489.445 564.765 492.268 552.415 494.342 539.861C500.198 533.349 507.231 528.308 514.151 522.98L514.162 522.976ZM477.714 562.028C483.025 555.029 487.715 547.544 493.438 540.865C493.482 540.812 493.538 540.755 493.593 540.698C491.497 553.046 489.031 565.448 485.602 577.495C476.864 580.912 467.874 583.713 458.739 585.989C458.569 584.67 460.064 582.52 460.534 581.529C461.11 580.301 461.674 579.077 462.11 577.81C468.255 573.604 473.243 567.946 477.725 562.024L477.714 562.028ZM439.858 585.865C446.716 584.683 453.589 582.931 459.634 579.374C459.957 579.186 460.246 578.972 460.566 578.774C460.219 579.471 459.903 580.182 459.579 580.909C459.186 581.798 458.797 582.698 458.394 583.59C458.114 584.227 457.647 584.94 457.518 585.612C457.476 585.852 457.486 586.062 457.545 586.267C456.713 586.469 455.888 586.693 455.056 586.895C438.783 590.664 422.278 593.085 405.648 594.534C415.645 588.286 428.473 587.834 439.854 585.854L439.858 585.865ZM403.226 596.217C421.695 594.579 440.172 591.848 458.157 587.27C458.468 587.588 458.824 587.89 459.127 588.185C460.459 589.49 461.804 590.764 463.143 592.053C468.196 596.887 473.22 601.745 478.374 606.469C477.602 606.738 476.823 606.984 476.028 607.185C472.013 608.181 467.852 608.325 463.744 607.975C454.959 607.221 446.481 604.468 437.941 602.438C428.113 600.092 418.115 597.98 408.06 596.854C406.391 596.67 404.727 596.497 403.066 596.335C403.114 596.293 403.178 596.259 403.226 596.217Z" fill="#7F694F"/>
<path d="M-19.1123 760.947C-19.1123 760.947 -19.035 760.845 -19.0019 760.796C-18.6281 761.042 -18.1259 761.08 -17.6967 760.693C-17.4969 760.511 -17.2743 760.358 -17.0745 760.176C-7.05349 761.815 2.95542 763.672 12.853 765.894C21.7969 767.896 30.594 770.701 39.636 772.193C48.1602 773.601 56.5701 773.132 64.404 769.278C68.5553 767.232 72.4227 764.658 76.6469 762.75C80.6777 760.934 84.9389 760.141 89.2974 759.627C93.5325 759.119 97.8225 758.804 101.944 757.646C106.305 756.417 110.093 754.121 113.537 751.194C117.461 747.848 121.009 744.031 124.653 740.382C128.522 736.517 132.398 732.636 136.268 728.771C143.784 721.267 151.776 714.012 158.497 705.77C161.784 701.744 164.602 697.379 166.677 692.609C168.698 687.97 170.049 683.063 171.141 678.133C175.142 659.984 176.988 641.117 174.59 622.624C174.294 620.296 173.9 617.976 173.462 615.672C173.241 614.533 171.627 614.756 171.502 615.84C171.017 620.208 168.905 624.189 165.372 626.859C161.946 629.442 157.801 630.245 153.637 630.704C149.596 631.157 145.56 631.446 141.715 632.859C138.16 634.171 134.949 636.216 132.06 638.65C125.432 644.24 120.816 651.649 116.359 658.978C113.768 663.238 111.17 667.514 108.095 671.466C106.685 673.286 105.146 674.987 103.528 676.603C103.449 676.63 103.394 676.687 103.361 676.773C101.676 678.45 99.8922 680.023 98.0436 681.519C90.9978 687.241 83.1799 692.042 76.7161 698.465C70.5959 704.542 65.6803 711.705 60.6613 718.678C55.701 725.567 50.4938 732.468 43.673 737.649C37.6752 742.205 30.6835 744.625 23.3646 746.068C10.471 748.637 -3.99357 748.455 -15.3098 755.989C-15.4916 756.115 -15.6583 756.249 -15.8328 756.359C-12.4586 751.576 -9.21661 746.7 -6.10296 741.744C2.52055 738.718 10.8499 734.956 18.6838 730.237C27.138 725.14 35.4764 719.205 42.0053 711.745C45.2955 707.981 48.0004 703.831 50.0106 699.233C52.1223 694.388 53.5603 689.262 55.9093 684.522C60.1806 675.904 67.3046 669.001 70.9385 660.028C74.3984 651.492 72.6238 642.609 72.6308 633.695C72.6357 624.055 77.4101 615.262 77.4229 605.644C77.4196 601.384 76.6715 597.144 75.1856 593.161C73.5368 588.747 70.9289 584.854 68.2208 581.033C65.4136 577.071 62.5986 573.087 60.7612 568.563C58.9471 564.105 57.9418 559.379 56.3737 554.835C53.4358 546.319 48.0844 539.332 41.0298 533.79C33.8692 528.16 25.5431 524.15 17.1421 520.719C15.008 519.844 12.852 519.015 10.6887 518.201C9.95508 517.93 8.94693 518.707 9.25325 519.515C14.7361 534.553 13.3682 551.048 5.2152 564.864C-3.22356 579.156 -17.4547 590.813 -20.0602 608.001C-21.3044 616.204 -19.6533 624.516 -20.6166 632.735C-21.6468 641.554 -26.3299 649.313 -29.3373 657.528C-34.2134 670.856 -35.0992 685.566 -32.2523 699.441C-29.4092 713.304 -22.9285 726.779 -13.157 737.104C-11.9309 738.394 -10.6124 739.59 -9.31241 740.805C-8.43683 741.628 -7.03838 740.352 -7.92903 739.521C-18.3368 729.781 -25.6254 716.65 -29.1072 702.896C-32.6012 689.071 -32.5296 674.219 -28.0726 660.623C-26.3085 655.246 -23.732 650.151 -21.6519 644.89C-15.9513 654.25 -9.97215 663.437 -4.1194 672.694C1.82524 682.107 7.76599 691.508 13.7106 700.921C12.3362 704.031 10.9165 707.12 9.43649 710.179C1.88646 725.728 -7.13315 740.548 -17.2 754.592C-18.4428 756.315 -19.6896 758.027 -20.9626 759.736C-21.8088 760.87 -19.94 762.062 -19.1089 760.921L-19.1123 760.947ZM75.0836 599.965C75.8613 604.47 75.6289 609.026 74.6575 613.475C73.6614 618.033 72.132 622.463 71.3687 627.078C70.0739 634.848 71.7638 642.695 71.1506 650.479C63.9993 656.727 57.0911 663.242 50.0575 669.612C42.513 676.423 34.9306 683.198 27.2607 689.864C23.5923 693.046 19.9121 696.194 16.2169 699.335C20.7 688.876 24.5729 678.14 27.7094 667.198C30.7958 656.435 33.1719 645.468 34.7829 634.392C35.0123 634.187 35.2418 633.982 35.4566 633.807C36.3496 633.095 37.2386 632.372 38.1165 631.653C44.3063 626.604 50.359 621.377 56.2561 615.991C62.5898 610.203 68.726 604.208 74.6878 598.035C74.8346 598.673 74.9664 599.304 75.0797 599.954L75.0836 599.965ZM52.4635 550.694C54.4525 554.789 55.5773 559.211 56.9106 563.548C58.2518 567.907 59.9195 572.052 62.3772 575.909C64.9039 579.893 67.8983 583.564 70.3434 587.602C72.1569 590.58 73.5499 593.756 74.4398 597.106C64.0334 607.796 53.0732 617.939 41.5846 627.463C40.1919 628.612 38.7993 629.761 37.3877 630.891C36.643 631.489 35.9095 632.082 35.1648 632.68C35.1055 632.726 35.0501 632.782 34.9908 632.828C35.7744 627.191 36.3704 621.519 36.7379 615.839C37.5029 603.916 37.3157 591.886 35.8427 580.015C38.9043 574.801 41.838 569.544 44.6697 564.209C46.1166 561.487 47.5295 558.74 48.9123 555.977C49.9082 553.977 51.1428 551.905 51.9646 549.764C52.126 550.084 52.302 550.374 52.4635 550.694ZM14.0918 521.93C28.5146 527.503 43.7556 534.96 51.4502 548.79C50.0329 550.913 49.04 553.426 47.8861 555.658C46.4732 558.405 45.0564 561.142 43.6094 563.864C41.0082 568.78 38.3427 573.655 35.6359 578.52C35.1466 574.88 34.5639 571.26 33.8281 567.668C30.6455 552.181 24.9147 537.078 15.7453 524.125C15.2227 523.379 14.6665 522.645 14.0918 521.93ZM12.9856 524.082C12.7444 523.101 12.4585 522.135 12.1502 521.177C12.1765 521.18 12.1954 521.199 12.2217 521.202C21.3332 533.737 27.7255 547.895 31.4004 562.96C32.7057 568.297 33.6711 573.701 34.3711 579.136C26.332 572.169 18.4552 565.02 10.453 558.015C14.7645 547.315 15.8266 535.49 12.9706 524.075L12.9856 524.082ZM5.30833 567.977C7.17964 565.07 8.77577 562.021 10.0973 558.866C18.2185 566.105 26.4837 573.181 34.5569 580.462C35.7537 590.386 36.0384 600.427 35.6038 610.417C35.2686 618.28 34.4876 626.122 33.3464 633.902C33.1262 633.953 32.8831 633.975 32.6245 633.952C32.4232 633.734 32.2331 633.512 32.0318 633.294C29.4031 630.385 26.7744 627.477 24.1457 624.569C18.8236 618.675 13.5423 612.754 8.23873 606.841C2.50582 600.45 -3.22321 594.071 -8.97459 587.699C-4.42752 580.991 0.978071 574.661 5.29325 567.97L5.30833 567.977ZM-3.23813 672.237C-9.22847 662.765 -15.1002 653.202 -21.2539 643.837C-20.396 641.583 -19.6287 639.285 -19.0869 636.916C-17.2102 628.693 -18.6892 620.371 -18.3074 612.066C-17.9071 603.165 -14.2172 595.615 -9.50292 588.522C1.39359 600.712 12.3455 612.844 23.242 625.034C25.9889 628.101 28.6949 631.196 31.4602 634.245C31.9654 634.796 32.452 635.366 33.1516 635.323C31.7922 644.169 29.9564 652.942 27.6398 661.594C24.1492 674.653 19.6065 687.426 14.1903 699.814C8.38716 690.628 2.56893 681.434 -3.24541 672.252L-3.23813 672.237ZM8.47837 715.927C10.8648 711.186 13.1156 706.38 15.2458 701.515C30.5789 688.522 45.6494 675.207 60.3441 661.496C63.9946 658.082 67.6032 654.621 71.0981 651.049C71.052 651.528 71.0058 652.008 70.9334 652.485C69.6329 662.112 62.8517 669.46 57.7127 677.277C55.0661 681.306 53.0287 685.537 51.3656 690.051C49.6014 694.851 48.0063 699.705 45.3345 704.094C40.1007 712.683 32.0706 719.287 23.8785 724.958C16.102 730.346 7.74262 734.959 -0.954237 738.674C-2.38387 739.284 -3.81788 739.846 -5.26695 740.4C-0.339363 732.444 4.25229 724.279 8.47448 715.916L8.47837 715.927ZM81.2662 759.275C77.0614 760.375 73.2392 762.394 69.4593 764.499C66.497 766.144 63.5313 767.815 60.3687 769.028C55.8887 764.545 51.2755 760.184 46.692 755.8C45.5621 754.714 44.4211 753.632 43.2952 752.558C42.7303 752.015 42.1654 751.472 41.5931 750.944C41.2557 750.622 40.7419 750.262 40.3364 749.89C49.4889 747.52 58.5115 744.669 67.3353 741.21C71.8672 743.933 76.4029 746.666 80.8983 749.464C83.2007 750.894 85.4846 752.343 87.7613 753.807C89.668 755.036 91.6524 756.201 93.5445 757.46C89.4363 757.937 85.281 758.242 81.2701 759.286L81.2662 759.275ZM117.432 745.351C113.966 748.788 110.364 752.235 105.941 754.4C102.437 756.108 98.5753 756.825 94.733 757.31C92.6193 755.99 90.6008 754.511 88.5016 753.161C86.1457 751.649 83.7675 750.145 81.3858 748.668C77.0528 745.976 72.6945 743.357 68.2735 740.809C71.1823 739.659 74.0605 738.457 76.9227 737.173C84.7125 733.66 92.2217 729.594 99.376 725.011C108.106 729.244 116.945 733.287 125.969 736.853C123.12 739.687 120.286 742.528 117.432 745.351ZM139.795 723.094C135.46 727.422 131.11 731.743 126.771 736.06C122.154 734.208 117.546 732.314 112.975 730.307C110.55 729.245 108.133 728.169 105.744 727.032C104.708 726.54 103.669 726.037 102.64 725.53C102.124 725.271 101.611 725.023 101.095 724.764C100.775 724.6 100.526 724.498 100.334 724.377C112.294 716.606 123.267 707.399 132.973 696.966C137.393 698.035 142.041 698.423 146.523 699.094C151.021 699.773 155.519 700.489 160.013 701.194C154.298 709.299 146.779 716.114 139.791 723.083L139.795 723.094ZM170.968 670.899C169.185 680.832 166.878 690.809 161.296 699.369C161.064 699.713 160.814 700.038 160.583 700.382C156.006 699.656 151.422 698.944 146.852 698.203C142.523 697.503 138.126 696.501 133.751 696.105C140.783 688.432 147.151 680.113 152.703 671.212C155.471 666.777 158.021 662.218 160.386 657.56C164.534 657.846 168.682 658.132 172.828 658.52C172.343 662.674 171.712 666.805 170.983 670.906L170.968 670.899ZM172.913 657.613C168.88 657.224 164.832 656.902 160.787 656.768C162.578 653.162 164.26 649.494 165.795 645.763C168.846 638.322 171.837 630.238 172.61 622.085C174.414 633.828 174.241 645.795 172.925 657.609L172.913 657.613ZM162.944 629.571C166.487 627.975 169.478 625.08 171.354 621.682C171.416 621.572 171.456 621.471 171.507 621.365C170.98 624.569 170.374 627.763 169.524 630.904C168.421 634.973 167.032 638.978 165.518 642.914C163.958 646.967 162.224 650.954 160.351 654.865C159.951 646.907 159.144 639.003 157.701 631.145C159.497 630.796 161.262 630.32 162.929 629.564L162.944 629.571ZM139.724 634.918C143.537 633.052 147.587 632.408 151.766 631.956C153.505 631.765 155.269 631.577 157.01 631.285C158.499 639.528 159.444 647.898 159.654 656.285C158.024 659.597 156.307 662.877 154.451 666.079C148.543 676.332 141.514 685.922 133.61 694.726C133.897 690.364 134.394 685.993 134.734 681.638C135.128 676.575 135.47 671.505 135.786 666.432C136.393 656.469 137.1 646.434 137.022 636.447C137.895 635.893 138.809 635.387 139.739 634.925L139.724 634.918ZM105.415 676.949C108.75 673.457 111.551 669.512 114.123 665.446C119.071 657.621 123.292 649.221 129.744 642.476C131.813 640.315 134.097 638.342 136.61 636.703C135.885 646.581 135.641 656.505 134.995 666.394C134.671 671.37 134.309 676.346 133.917 681.308C133.527 686.131 133.269 691.009 132.636 695.817C129.34 699.42 125.922 702.89 122.334 706.194C115.339 712.639 107.821 718.376 99.9174 723.469C99.913 723.421 99.9087 723.372 99.9155 723.32C99.9931 720.949 100.493 718.531 100.75 716.173C101.029 713.695 101.292 711.209 101.555 708.724C102.071 703.756 102.522 698.786 102.91 693.813C103.312 688.735 103.862 683.58 103.867 678.478C104.392 677.969 104.909 677.476 105.415 676.949ZM95.1618 685.88C97.8712 683.797 100.542 681.64 103.039 679.304C102.706 682.491 102.557 685.701 102.31 688.883C101.995 692.803 101.653 696.72 101.289 700.644C100.575 708.501 99.7345 716.351 98.7999 724.184C88.9123 730.457 78.4086 735.716 67.4922 740.04C70.4453 727.67 73.2675 715.319 75.3422 702.766C81.1984 696.254 88.2306 691.212 95.1506 685.884L95.1618 685.88ZM58.7139 724.933C64.0247 717.934 68.7151 710.448 74.4381 703.77C74.4823 703.717 74.5377 703.66 74.5931 703.603C72.4971 715.951 70.0311 728.353 66.6022 740.4C57.8639 743.816 48.8744 746.618 39.7394 748.894C39.5686 747.575 41.0642 745.425 41.5342 744.434C42.1097 743.206 42.6739 741.982 43.1104 740.715C49.255 736.509 54.2427 730.85 58.7251 724.929L58.7139 724.933ZM20.8579 748.77C27.716 747.587 34.5891 745.835 40.6337 742.278C40.957 742.091 41.2462 741.877 41.5656 741.678C41.219 742.375 40.9026 743.087 40.5789 743.814C40.1862 744.703 39.7974 745.602 39.3935 746.495C39.1136 747.131 38.6474 747.845 38.5177 748.517C38.4759 748.757 38.4862 748.967 38.545 749.172C37.7128 749.373 36.8883 749.598 36.0561 749.799C19.7826 753.569 3.27802 755.99 -13.3516 757.439C-3.35505 751.191 9.47268 750.739 20.8541 748.759L20.8579 748.77ZM-15.7742 759.122C2.69481 757.484 21.172 754.752 39.1571 750.174C39.4683 750.492 39.8241 750.795 40.1275 751.09C41.4586 752.394 42.8043 753.668 44.1427 754.957C49.1964 759.792 54.2204 764.649 59.3737 769.374C58.6022 769.642 57.823 769.888 57.0282 770.09C53.013 771.086 48.8518 771.23 44.744 770.879C35.9588 770.126 27.4806 767.373 18.9407 765.343C9.11257 762.997 -0.884692 760.885 -10.9402 759.758C-12.6086 759.574 -14.2731 759.401 -15.9337 759.24C-15.8856 759.198 -15.8224 759.163 -15.7742 759.122Z" fill="#7F694F"/>
<path d="M868.295 110.515C874.228 94.0591 878.713 76.9633 880.291 59.4982C881.853 42.1661 880.433 24.464 874.938 7.89499C872.752 1.30598 869.926 -5.08235 866.401 -11.058C865.933 -12.3458 865.378 -13.6104 864.725 -14.828C869.309 -13.0663 873.842 -11.1591 878.316 -9.11572C882.895 -3.27371 883.755 4.44461 884.055 11.6988C884.385 19.7576 884.714 27.7571 885.698 35.7688C887.767 52.4366 891.656 68.7602 896.016 84.9554C898.506 94.1784 901.19 103.34 903.828 112.522C904.036 113.247 905.042 113.361 905.318 112.619C908.425 104.513 911.487 96.368 913.417 87.8919C915.237 79.9083 915.821 71.8254 915.023 63.6677C913.347 46.5417 906.202 30.4387 897.236 15.9279C892.795 8.74501 888.011 1.68069 882.829 -5.02708C882.426 -5.94445 881.959 -6.82734 881.437 -7.6664C892.001 -2.65003 902.193 3.13912 911.903 9.6371C919.335 20.5976 918.759 34.6597 918.99 47.4283C919.251 61.4822 921.385 75.3755 923.473 89.2461C924.733 97.6285 926.045 106 927.416 114.371C927.501 114.921 928.285 114.923 928.462 114.439C933.475 100.839 936.591 86.1994 936.541 71.6651C936.481 56.7923 933.323 41.8811 926.732 28.5016C924.032 23.0223 920.782 17.8388 916.954 13.1081C917.467 13.4737 917.981 13.8228 918.493 14.1884C932.561 24.3094 945.399 36.0266 956.816 49.022C947.507 67.9441 942.219 88.7369 941.298 109.823C941.034 115.896 941.14 121.98 941.576 128.044C941.625 128.683 942.681 128.878 942.967 128.323C952.961 108.91 960.137 87.6296 959.834 65.5772C959.764 60.5938 959.237 55.6225 958.271 50.7245C964.955 58.466 971.122 66.6424 976.764 75.1852C971.656 83.8661 967.135 92.7785 963.818 102.326C960.348 112.31 958.149 122.727 957.176 133.25C956.624 139.262 956.729 145.211 956.8 151.232C956.812 151.899 957.663 152.255 958.064 151.655C961.002 147.382 963.335 142.606 965.531 137.922C967.775 133.11 969.74 128.171 971.414 123.13C974.722 113.168 976.93 102.744 977.778 92.2731C978.189 87.2132 978.301 82.1171 977.997 77.0463C978.898 78.4457 979.79 79.8524 980.663 81.2737C984.335 87.2249 987.773 93.3587 990.961 99.6138C989.472 104.315 986.925 108.627 984.891 113.094C982.753 117.793 980.861 122.614 979.158 127.484C975.785 137.151 973.23 147.094 971.517 157.19C970.532 163.015 969.713 168.936 969.519 174.849C969.502 175.538 970.37 175.821 970.766 175.27C977.062 166.741 981.129 156.56 984.474 146.569C987.728 136.845 990.051 126.798 991.303 116.612C991.89 111.835 992.194 107.04 992.279 102.236C992.578 102.829 992.842 103.434 993.131 104.034C994.716 108.973 995.602 113.98 995.945 119.215C996.348 125.141 996.14 131.094 996.053 137.028C995.859 149.754 995.989 162.797 998.072 175.377C999.19 182.157 1001.15 188.803 1004.38 194.886C1004.77 195.608 1005.72 195.31 1005.84 194.583C1009.48 173.733 1010.66 151.675 1005.14 131.038C1003.83 126.192 1002.15 121.553 999.956 117.079C997.971 111.822 995.834 106.638 993.474 101.554C1004.73 116.268 1019.75 127.785 1034.78 138.411C1039.47 141.728 1044.35 144.824 1048.95 148.274C1049.47 148.675 1050.17 148.009 1049.88 147.451C1045.21 138.301 1038.66 129.673 1031.2 122.63C1023.99 115.837 1015.68 110.385 1007.07 105.531C1002.24 102.794 997.281 100.271 992.342 97.7492C992.269 97.6561 992.189 97.5536 992.116 97.4604C991.904 97.1902 991.638 97.158 991.406 97.2647C989.398 93.1679 987.283 89.1254 984.992 85.146C983.064 81.7839 981.052 78.4876 978.96 75.2238C986.786 78.6264 993.286 84.3305 999.966 89.5335C1007.56 95.4631 1015.9 100.16 1024.25 104.932C1029.02 107.67 1033.9 110.42 1038.22 113.845C1038.67 114.202 1039.31 113.597 1039.05 113.126C1034.35 104.665 1027.14 97.2215 1019.65 91.2043C1011.93 84.9887 1003.14 80.0789 993.791 76.7608C988.544 74.902 983.071 73.6565 977.554 72.9116C977.514 72.8982 977.478 72.9108 977.443 72.9234C972.28 65.088 966.659 57.5513 960.606 50.3837C964.286 52.6429 967.95 54.9 971.772 56.8981C976.792 59.522 981.918 61.9565 987.121 64.181C992.347 66.4169 997.676 68.4374 1003.07 70.2386C1008.66 72.1046 1014.34 73.6203 1019.97 75.348C1026.55 77.3774 1032.61 80.4221 1038.75 83.4696C1039.44 83.8055 1039.88 82.8394 1039.51 82.3549C1031.87 72.5497 1020.99 65.9106 1009.79 60.8842C1003.95 58.2539 997.948 56.0418 991.92 53.8774C986.579 51.9566 981.213 50.041 975.71 48.6233C969.724 47.0879 963.561 46.2478 957.384 46.6371C953.278 41.9738 948.965 37.4878 944.49 33.1592C955.272 36.1699 966.023 39.2949 977.13 40.8779C983.066 41.7157 989.097 42.1773 995.096 41.9434C1001.06 41.7055 1006.92 40.7215 1012.81 39.7654C1019.76 38.6351 1026.77 37.4537 1033.81 38.2657C1034.28 38.3221 1034.52 37.6256 1034.12 37.3831C1028.84 34.2389 1023 31.9711 1017.19 30.0603C1011.33 28.1362 1005.31 26.6892 999.222 25.7149C986.88 23.7461 974.171 23.6299 961.844 25.7103C955.362 26.8046 949.021 28.6158 942.871 30.9392C942.806 30.9145 942.74 30.9064 942.675 30.8817C942.48 30.8243 942.3 30.8447 942.15 30.9024C933.726 22.9752 924.733 15.645 915.231 9.02892C925.54 12.1846 936.425 13.4455 947.174 12.6916C959.879 11.8038 971.659 7.35519 983.951 4.44435C990.801 2.82128 998.553 1.19799 1005.55 2.6455C1006.27 2.79133 1006.65 1.83371 1005.93 1.53628C1000.23 -0.807865 993.913 -2.05439 987.844 -3.0433C981.601 -4.06169 975.29 -4.51502 968.974 -4.43779C962.894 -4.36557 956.817 -3.82928 950.819 -2.82813C944.466 -1.76027 938.317 0.0658425 932.195 2.02161C925.547 4.13297 918.772 6.25411 911.767 6.45017C911.573 6.37613 911.369 6.32603 911.175 6.25199C903.248 0.973625 895.01 -3.81977 886.513 -8.07959C884.947 -8.86809 883.361 -9.62536 881.782 -10.3733C907.807 -6.37426 936.428 -7.92903 959.385 -21.8742C966.548 -26.2249 973.182 -31.7697 979.199 -37.5832C979.647 -38.0095 979.449 -38.9526 978.732 -38.9468C965.357 -38.7221 951.927 -37.2814 939.074 -33.4352C932.617 -31.5031 926.334 -28.985 920.31 -25.9633C913.566 -22.5735 907.103 -18.5763 900.095 -15.7161C896.716 -14.3467 893.19 -13.3578 889.58 -12.8596C887.384 -12.5525 885.167 -12.4841 882.951 -12.5673C880.725 -12.6432 878.443 -12.5237 876.274 -13.0649C874.186 -13.5795 872.323 -14.6909 870.358 -15.5277C868.217 -16.4366 865.991 -17.204 863.814 -18.0245C863.661 -18.0852 863.516 -18.1366 863.37 -18.188C868.583 -21.19 874.569 -22.0915 880.415 -23.1533C886.416 -24.2469 892.285 -25.8539 897.999 -27.9857C909.632 -32.3342 920.436 -38.6211 930.81 -45.382C936.724 -49.2349 942.538 -53.2349 948.445 -57.0972C949.131 -57.5451 948.816 -58.5614 947.961 -58.4627C935.109 -56.9183 922.18 -54.1099 909.839 -50.2437C897.855 -46.4775 886.249 -41.3671 875.916 -34.1713C870.096 -30.1215 864.298 -25.4872 861.012 -19.0473C858.113 -20.0987 855.2 -21.1097 852.27 -22.0468C848.283 -23.3144 844.304 -24.5726 840.149 -25.0764C839.102 -25.2034 838.912 -23.7003 839.803 -23.3309C843.264 -21.9077 846.867 -20.9565 850.434 -19.841C853.838 -18.779 857.215 -17.6358 860.568 -16.4282C860.996 -16.2668 861.423 -16.1053 861.843 -15.9532C862.893 -14.325 863.899 -12.6768 864.851 -11.0014C866.831 -5.42397 867.222 0.736606 866.847 6.61034C866.289 15.3202 864.404 23.9114 863.427 32.5876C861.555 49.1401 861.347 65.8775 862.774 82.4759C863.584 91.8577 864.98 101.142 866.836 110.381C866.979 111.081 867.984 111.135 868.225 110.465L868.295 110.515ZM894.028 13.7345C898.773 21.1903 903.139 28.929 906.577 37.078C912.903 52.0782 916.001 68.466 912.895 84.6161C911.208 93.3831 907.959 101.75 904.685 110.046C899.806 94.3782 895.112 78.6399 891.636 62.5941C889.839 54.332 888.328 45.9953 887.324 37.5933C886.321 29.1747 886.048 20.7855 885.793 12.3226C885.668 8.13374 885.415 3.68474 884.377 -0.480028C887.634 4.23204 890.954 8.9096 894.026 13.7511L894.028 13.7345ZM949.492 110.26C947.543 115.277 945.321 120.176 942.932 124.996C941.829 104.609 944.878 83.9917 951.711 64.7692C953.349 60.1616 955.214 55.6321 957.253 51.1913C960.142 71.247 956.81 91.4252 949.499 110.269L949.492 110.26ZM974.521 105.369C972.542 115.568 969.391 125.557 965.179 135.055C963.077 139.8 960.569 144.277 958.073 148.806C957.903 144.291 958.156 139.701 958.521 135.234C958.941 130.032 959.662 124.85 960.704 119.731C962.758 109.609 965.953 99.6758 970.245 90.2804C972.312 85.7585 974.626 81.3426 977.294 77.1465C977.047 86.6194 976.343 96.0452 974.528 105.378L974.521 105.369ZM978.651 158.367C976.544 163.221 974.234 168.085 971.192 172.455C972.289 162.992 973.575 153.637 975.881 144.355C978.36 134.411 981.682 124.678 985.804 115.296C987.677 111.046 989.973 106.855 991.592 102.473C990.496 121.666 986.304 140.728 978.641 158.374L978.651 158.367ZM1016.88 113.052C1025.19 118.613 1032.67 125.194 1038.86 133.079C1042.02 137.113 1044.72 141.395 1047.37 145.755C1043.94 143.552 1040.6 141.174 1037.27 138.855C1033.24 136.057 1029.23 133.193 1025.32 130.231C1017.37 124.217 1009.76 117.653 1002.94 110.376C999.802 107.018 996.796 103.509 993.974 99.8696C1001.76 103.976 1009.55 108.149 1016.88 113.052ZM1006.55 144.895C1007.92 155.458 1007.79 166.167 1006.77 176.76C1006.27 181.919 1005.54 187.05 1004.7 192.168C999.382 181.404 998.467 168.991 997.939 157.148C997.641 150.568 997.562 143.982 997.676 137.411C997.78 131.479 998.004 125.528 997.644 119.598C997.487 116.999 997.184 114.349 996.7 111.735C998.693 116.235 1000.54 120.801 1002.24 125.4C1004.22 131.771 1005.69 138.29 1006.56 144.904L1006.55 144.895ZM1028.24 100.854C1031.34 104.199 1033.99 107.792 1036.58 111.495C1028.96 106.743 1021.14 102.371 1013.44 97.7276C1009.24 95.2025 1005.19 92.4515 1001.33 89.4288C997.694 86.5766 994.177 83.587 990.474 80.8191C987.103 78.3023 983.559 76.026 979.748 74.2906C998.189 77.6905 1015.47 87.1134 1028.24 100.854ZM989.488 54.1137C1000.99 58.2483 1012.67 62.4735 1022.93 69.2321C1027.93 72.5195 1032.51 76.3795 1036.46 80.8471C1031.98 78.7352 1027.41 76.7814 1022.72 75.1759C1017.21 73.2941 1011.57 71.8343 1006.06 69.9764C995.175 66.3213 984.553 61.7869 974.371 56.4711C968.892 53.606 963.379 50.7369 958.19 47.3588C968.98 47.0398 979.446 50.4929 989.481 54.1044L989.488 54.1137ZM1014.73 30.5885C1020.62 32.391 1026.2 34.83 1031.78 37.3615C1026.59 37.4481 1021.39 37.9138 1016.25 38.6148C1010.18 39.4304 1004.12 40.4494 998.001 40.719C985.995 41.2699 974.065 39.3089 962.448 36.4415C956.513 34.9714 950.61 33.3111 944.763 31.5312C967.338 24.2769 992.012 23.6348 1014.73 30.5885ZM947.544 -0.366811C959.867 -2.70048 972.305 -3.12315 984.776 -1.66152C990.438 -1.00022 995.886 0.309731 1001.37 1.64964C996.836 1.79093 992.363 2.1085 987.83 2.98382C981.674 4.16828 975.639 5.8901 969.579 7.46563C963.572 9.03059 957.524 10.5064 951.351 11.2081C944.93 11.9388 938.432 11.9181 932.01 11.19C925.729 10.4874 919.563 9.04829 913.572 7.06548C925.187 6.89709 936.239 1.76999 947.553 -0.374125L947.544 -0.366811ZM932.019 47.9712C935.428 61.8587 935.648 76.4557 933.489 90.5704C932.381 97.8308 930.533 104.934 928.173 111.882C926.29 97.792 924.057 83.735 922.379 69.6189C921.519 62.3813 920.891 55.1127 920.746 47.8268C920.607 40.8368 920.822 33.78 919.766 26.8473C919.1 22.4662 917.855 18.0572 915.836 14.0601C923.441 24.1478 928.985 35.6551 932 47.9857L932.019 47.9712ZM915.907 -22.197C928.295 -28.958 941.459 -33.9049 955.399 -36.2871C962.503 -37.5083 969.638 -37.9415 976.8 -37.4778C971.55 -32.9878 966.53 -28.3013 960.724 -24.5028C955.027 -20.7753 948.826 -17.8256 942.385 -15.6049C929.626 -11.216 916.075 -9.68039 902.644 -9.96839C897.489 -10.0792 892.353 -10.4912 887.225 -11.0288C897.406 -11.9695 906.941 -17.306 915.907 -22.197ZM875.346 -31.694C880.441 -35.4017 885.92 -38.5823 891.605 -41.3079C902.983 -46.7663 915.159 -50.3827 927.466 -53.0641C933.373 -54.3546 939.32 -55.3452 945.26 -56.4209C926.215 -42.2628 905.102 -28.9795 881.458 -24.7384C875.278 -23.6245 868.864 -22.8845 863.258 -19.9048C866.316 -24.6775 870.779 -28.386 875.329 -31.696L875.346 -31.694ZM863.532 58.8404C863.616 50.2922 864.121 41.7445 865.085 33.2439C866.062 24.492 867.99 15.8217 868.575 7.03071C868.849 2.96598 868.726 -1.16374 868.004 -5.15524C873.48 6.01489 876.966 18.0821 878.511 30.5126C880.648 47.7283 879.054 65.2506 875.23 82.1145C873.286 90.7069 870.744 99.151 867.83 107.466C864.822 91.4597 863.397 75.1145 863.542 58.8331L863.532 58.8404Z" fill="#7F694F"/>
<path d="M147.724 96.4854C159.905 83.9299 171.029 70.1955 179.656 54.9282C188.214 39.7753 194.206 23.0578 196.018 5.69561C196.738 -1.20909 196.792 -8.19427 196.039 -15.0912C196.143 -16.4574 196.158 -17.8383 196.063 -19.2169C199.516 -15.7245 202.862 -12.1207 206.098 -8.41677C207.866 -1.20809 205.473 6.18008 202.761 12.9151C199.745 20.3952 196.751 27.8209 194.351 35.5277C189.376 51.5694 186.201 68.0469 183.508 84.6012C181.982 94.0318 180.656 103.486 179.282 112.94C179.172 113.686 180.043 114.204 180.599 113.641C186.768 107.533 192.911 101.37 198.159 94.4401C203.103 87.9132 206.962 80.7871 209.593 73.0239C215.115 56.7263 215.231 39.1096 213.033 22.1946C211.942 13.8204 210.49 5.41298 208.528 -2.83305C208.538 -3.83502 208.477 -4.83159 208.346 -5.81122C215.909 3.10875 222.815 12.5799 228.989 22.4986C231.251 35.5464 224.938 48.1253 219.893 59.8571C214.346 72.7724 210.573 86.3129 206.765 99.8131C204.463 107.971 202.213 116.141 200.018 124.334C199.869 124.87 200.582 125.195 200.943 124.826C211.11 114.495 219.975 102.436 225.912 89.1695C231.979 75.5904 235.238 60.701 234.739 45.7947C234.534 39.6898 233.706 33.6281 232.164 27.7411C232.481 28.2852 232.805 28.8149 233.122 29.3589C241.777 44.3734 248.654 60.3361 253.71 76.8792C237.437 90.292 224.06 107.065 214.541 125.903C211.801 131.329 209.393 136.917 207.294 142.624C207.076 143.226 207.958 143.839 208.448 143.45C225.546 129.872 240.845 113.431 249.646 93.2091C251.634 88.6386 253.199 83.891 254.335 79.0296C257.24 88.836 259.495 98.8261 261.121 108.934C252.892 114.743 245.103 121.004 238.151 128.34C230.879 136.011 224.587 144.599 219.369 153.789C216.391 159.042 214.038 164.506 211.625 170.022C211.361 170.636 211.989 171.31 212.603 170.928C217.039 168.244 221.131 164.851 225.06 161.486C229.086 158.025 232.91 154.332 236.51 150.426C243.625 142.709 249.928 134.118 255.011 124.925C257.469 120.482 259.668 115.884 261.478 111.138C261.724 112.784 261.957 114.433 262.168 116.088C263.065 123.023 263.674 130.028 264.004 137.041C260.711 140.713 256.616 143.594 252.923 146.828C249.041 150.23 245.332 153.845 241.776 157.582C234.722 165.004 228.301 173.014 222.584 181.51C219.289 186.413 216.105 191.472 213.495 196.781C213.196 197.403 213.871 198.017 214.458 197.678C223.706 192.497 231.604 184.892 238.765 177.164C245.733 169.641 251.985 161.44 257.319 152.673C259.821 148.561 262.071 144.316 264.126 139.973C264.154 140.636 264.146 141.296 264.163 141.963C263.574 147.116 262.32 152.043 260.478 156.956C258.406 162.523 255.767 167.863 253.245 173.235C247.83 184.752 242.58 196.693 239.3 209.015C237.528 215.654 236.578 222.518 237.021 229.393C237.075 230.209 238.068 230.331 238.478 229.718C250.371 212.212 260.528 192.596 263.987 171.514C264.796 166.562 265.174 161.643 265.013 156.661C265.368 151.052 265.554 145.449 265.496 139.844C269.702 157.888 278.642 174.563 287.971 190.436C290.881 195.39 294.052 200.219 296.823 205.256C297.136 205.838 298.045 205.517 298.013 204.891C297.519 194.628 295.1 184.068 291.201 174.579C287.432 165.423 282.094 157.03 276.253 149.065C272.971 144.58 269.494 140.241 266.03 135.91C266.002 135.795 265.971 135.669 265.943 135.554C265.861 135.22 265.632 135.081 265.376 135.083C265.233 130.523 264.969 125.968 264.519 121.398C264.146 117.541 263.669 113.709 263.106 109.873C268.837 116.195 272.414 124.069 276.36 131.561C280.841 140.091 286.511 147.805 292.15 155.588C295.377 160.05 298.69 164.564 301.221 169.464C301.48 169.974 302.311 169.685 302.264 169.147C301.472 159.506 297.958 149.751 293.615 141.187C289.13 132.341 283.148 124.252 275.99 117.378C271.973 113.525 267.498 110.137 262.777 107.187C262.745 107.158 262.708 107.155 262.67 107.152C261.19 97.8862 259.17 88.7039 256.603 79.68C259.028 83.2539 261.438 86.8191 264.099 90.2132C267.593 94.6705 271.263 98.9993 275.089 103.168C278.932 107.357 282.956 111.392 287.134 115.255C291.454 119.254 296.011 122.975 300.427 126.865C305.591 131.424 309.857 136.692 314.206 142C314.692 142.588 315.496 141.891 315.349 141.293C312.423 129.213 305.246 118.687 297.105 109.494C292.869 104.695 288.306 100.207 283.704 95.7532C279.627 91.8044 275.525 87.8497 271.093 84.2927C266.27 80.4295 260.999 77.1271 255.209 74.9393C253.387 68.9994 251.303 63.1358 249.006 57.3488C257.593 64.5306 266.105 71.8039 275.575 77.8183C280.64 81.025 285.947 83.9285 291.51 86.1843C297.044 88.4227 302.791 89.9385 308.546 91.4888C315.346 93.3195 322.225 95.1304 328.31 98.7695C328.711 99.0124 329.213 98.4749 328.948 98.089C325.433 93.0516 321.046 88.5818 316.534 84.4473C311.99 80.2839 307.098 76.4865 301.951 73.0927C291.513 66.2185 279.978 60.8811 267.888 57.7032C261.53 56.0325 255.005 55.0731 248.444 54.659C248.395 54.6099 248.338 54.5752 248.289 54.5262C248.135 54.3934 247.963 54.3381 247.802 54.3288C243.388 43.637 238.209 33.2549 232.273 23.3143C240.369 30.4336 249.77 36.0629 259.877 39.8004C271.821 44.2208 284.387 45.0149 296.788 47.4219C303.699 48.7621 311.432 50.4734 317.216 54.6739C317.808 55.1015 318.546 54.3841 318.018 53.819C313.785 49.3355 308.542 45.5997 303.418 42.2003C298.148 38.7027 292.583 35.6918 286.795 33.1622C281.224 30.7256 275.465 28.713 269.586 27.1563C263.357 25.5149 257.002 24.6481 250.617 23.9104C243.69 23.0984 236.642 22.2428 230.177 19.538C230.031 19.3909 229.865 19.261 229.719 19.1139C224.668 11.0407 219.133 3.2811 213.142 -4.09865C212.04 -5.46163 210.906 -6.80465 209.775 -8.13617C231.847 6.22061 258.571 16.5844 285.233 13.3244C293.552 12.3079 301.88 9.98517 309.757 7.16366C310.34 6.95955 310.548 6.01874 309.892 5.72869C297.61 0.42818 284.778 -3.78664 271.481 -5.5717C264.801 -6.46868 258.038 -6.7602 251.304 -6.48601C243.763 -6.17235 236.228 -5.18971 228.664 -5.46761C225.021 -5.61025 221.4 -6.16049 217.905 -7.19251C215.777 -7.81646 213.728 -8.66687 211.743 -9.65481C209.746 -10.6399 207.617 -11.4706 205.863 -12.8566C204.172 -14.1849 202.931 -15.9648 201.485 -17.536C199.908 -19.2456 198.195 -20.8611 196.549 -22.505C196.435 -22.6233 196.323 -22.73 196.212 -22.8367C202.198 -23.4272 208.024 -21.7847 213.789 -20.3463C219.708 -18.8728 225.719 -17.9214 231.804 -17.5123C244.195 -16.6873 256.63 -17.9696 268.866 -19.8615C275.842 -20.9385 282.787 -22.1908 289.761 -23.2794C290.571 -23.4049 290.702 -24.4609 289.882 -24.723C277.533 -28.6055 264.594 -31.368 251.756 -32.9242C239.284 -34.4241 226.603 -34.5441 214.224 -32.2394C207.253 -30.9442 200.061 -29.1073 194.416 -24.5904C192.207 -26.7422 189.968 -28.8625 187.683 -30.9227C184.572 -33.7187 181.464 -36.5032 177.884 -38.6726C176.982 -39.2193 176.19 -37.928 176.85 -37.2245C179.419 -34.5026 182.311 -32.1526 185.102 -29.668C187.768 -27.2989 190.375 -24.8669 192.934 -22.3863C193.257 -22.0633 193.58 -21.7403 193.9 -21.4287C194.187 -19.5124 194.425 -17.5963 194.603 -15.6776C194.112 -9.77965 191.933 -4.0041 189.173 1.19463C185.079 8.9025 179.825 15.9563 175.364 23.4615C166.844 37.7762 159.765 52.9442 154.234 68.6589C151.111 77.5426 148.561 86.578 146.45 95.7619C146.292 96.4589 147.185 96.9223 147.681 96.4106L147.724 96.4854ZM211.012 18.8751C212.268 27.6233 213.061 36.4728 212.84 45.3149C212.432 61.5894 208.509 77.7995 199.032 91.2398C193.885 98.5353 187.481 104.823 181.082 111.036C183.084 94.7487 185.284 78.4736 188.721 62.4193C190.484 54.1497 192.539 45.9303 195.081 37.8595C197.633 29.7743 200.837 22.0165 204.088 14.1987C205.699 10.3299 207.299 6.17103 208.068 1.94818C209.096 7.58306 210.196 13.2125 211.003 18.8895L211.012 18.8751ZM221.828 129.674C217.987 133.444 213.946 136.995 209.785 140.404C217.171 121.37 228.436 103.835 242.576 89.1292C245.965 85.6043 249.529 82.2438 253.215 79.036C247.593 98.5029 236.25 115.521 221.831 129.686L221.828 129.674ZM246.652 135.519C240.651 143.999 233.668 151.806 225.919 158.728C222.05 162.188 217.923 165.236 213.783 168.335C215.487 164.151 217.607 160.072 219.778 156.151C222.302 151.583 225.092 147.157 228.149 142.921C234.187 134.542 241.187 126.804 248.966 120.008C252.711 116.737 256.638 113.666 260.796 110.939C256.672 119.471 252.15 127.771 246.655 135.53L246.652 135.519ZM228.601 185.519C224.684 189.076 220.577 192.558 216.005 195.288C220.9 187.115 225.922 179.119 231.845 171.609C238.197 163.566 245.231 156.064 252.85 149.21C256.306 146.108 260.123 143.234 263.402 139.906C254.503 156.947 242.837 172.594 228.59 185.522L228.601 185.519ZM282.093 159.956C287.381 168.446 291.483 177.52 293.883 187.255C295.104 192.234 295.796 197.244 296.417 202.309C294.201 198.891 292.138 195.35 290.052 191.864C287.533 187.655 285.063 183.397 282.713 179.086C277.946 170.334 273.712 161.219 270.496 151.781C269.013 147.428 267.718 142.992 266.644 138.514C272.054 145.463 277.429 152.47 282.093 159.956ZM259.573 184.725C256.478 194.918 251.947 204.622 246.654 213.855C244.076 218.351 241.297 222.725 238.433 227.048C238.013 215.048 242.288 203.358 246.682 192.347C249.118 186.228 251.758 180.193 254.566 174.251C257.103 168.888 259.756 163.557 261.869 158.005C262.795 155.571 263.611 153.031 264.245 150.45C264.209 155.371 264.015 160.294 263.665 165.182C262.852 171.805 261.508 178.351 259.576 184.736L259.573 184.725ZM297.468 153.516C298.918 157.84 299.855 162.206 300.688 166.645C295.7 159.178 290.374 151.977 285.268 144.575C282.475 140.543 279.916 136.368 277.644 132.026C275.506 127.931 273.532 123.759 271.297 119.712C269.26 116.03 266.968 112.497 264.208 109.347C279.616 120.036 291.486 135.737 297.468 153.516ZM281.39 94.9677C290.166 103.468 299.08 112.13 305.648 122.513C308.85 127.566 311.43 132.966 313.193 138.665C309.977 134.895 306.617 131.234 303.006 127.841C298.763 123.86 294.223 120.208 289.96 116.244C281.548 108.434 273.734 99.9292 266.642 90.8936C262.828 86.0272 258.986 81.1434 255.647 75.9289C265.611 80.0792 273.729 87.5345 281.387 94.9562L281.39 94.9677ZM314.076 83.9166C318.706 87.9856 322.788 92.5058 326.83 97.109C322.059 95.0492 317.129 93.3332 312.16 91.8581C306.293 90.1035 300.351 88.538 294.662 86.2644C283.493 81.8245 273.428 75.127 264.021 67.732C259.218 63.9493 254.521 60.0063 249.925 55.9777C273.485 58.6585 296.236 68.2293 314.076 83.9166ZM265.588 28.0515C277.78 30.9973 289.29 35.7316 300.053 42.1967C304.941 45.1299 309.367 48.5664 313.816 52.046C309.624 50.3074 305.416 48.7554 300.924 47.6873C294.827 46.2331 288.618 45.3181 282.447 44.2598C276.327 43.2131 270.209 42.0689 264.294 40.1676C258.141 38.1905 252.227 35.4968 246.675 32.1902C241.24 28.9646 236.213 25.1149 231.569 20.842C242.223 25.4691 254.406 25.3456 265.6 28.0487L265.588 28.0515ZM231.544 65.7147C228.934 79.7743 223.126 93.1679 215.349 105.143C211.351 111.304 206.743 117.017 201.732 122.378C205.815 108.761 209.566 95.0309 213.847 81.4754C216.043 74.5256 218.463 67.6429 221.329 60.9431C224.08 54.5154 227.18 48.1726 229.071 41.4196C230.267 37.1527 230.948 32.6223 230.753 28.1482C233.531 40.472 233.847 53.2413 231.521 65.7203L231.544 65.7147ZM245.741 -4.86577C259.815 -5.92826 273.847 -5.01846 287.532 -1.45156C294.51 0.359767 301.191 2.9019 307.527 6.27224C300.894 8.20353 294.39 10.4081 287.535 11.48C280.809 12.5323 273.943 12.6681 267.159 12.0405C253.725 10.7889 240.743 6.61071 228.621 0.819949C223.968 -1.40303 219.458 -3.89239 215.005 -6.49345C224.671 -3.15988 235.557 -4.09882 245.741 -4.86577ZM212.685 -30.2164C218.855 -31.498 225.157 -32.1417 231.46 -32.2857C244.077 -32.5767 256.662 -30.8608 268.981 -28.2389C274.896 -26.9836 280.723 -25.4387 286.58 -23.974C263.396 -18.9098 238.686 -15.4947 215.393 -21.3613C209.301 -22.8901 203.152 -24.8557 196.816 -24.4476C201.567 -27.5386 207.161 -29.0812 212.67 -30.2251L212.685 -30.2164ZM164.654 47.4305C168.248 39.6745 172.227 32.0925 176.604 24.7419C181.097 17.1679 186.423 10.0598 190.575 2.28907C192.498 -1.30272 194.085 -5.11707 195.07 -9.05184C195.463 3.38187 193.673 15.8144 189.964 27.779C184.826 44.3482 176.161 59.6613 165.734 73.4564C160.426 80.4869 154.634 87.1364 148.556 93.5147C152.402 77.689 157.832 62.2064 164.665 47.4277L164.654 47.4305Z" fill="#7F694F"/>
<path d="M827.225 700.037C812.522 709.531 798.589 720.386 786.74 733.325C774.985 746.157 765.372 761.096 759.69 777.598C757.429 784.168 755.796 790.951 754.979 797.841C754.576 799.155 754.245 800.492 754.02 801.854C751.439 797.675 749.001 793.402 746.68 789.069C746.586 781.647 750.575 774.982 754.754 769.039C759.382 762.434 763.975 755.876 768.048 748.903C776.512 734.402 783.33 719.06 789.687 703.541C793.31 694.698 796.731 685.784 800.199 676.882C800.471 676.172 799.749 675.485 799.063 675.899C791.676 680.457 784.301 685.074 777.624 690.637C771.339 695.882 765.976 701.954 761.655 708.915C752.599 723.547 748.503 740.688 746.834 757.651C746.006 766.056 745.532 774.579 745.568 783.055C745.331 784.026 745.177 785.009 745.07 786.003C739.72 775.609 735.127 764.825 731.35 753.769C732.084 740.546 741.081 729.714 748.645 719.427C756.967 708.098 763.691 695.751 770.451 683.464C774.535 676.03 778.572 668.584 782.561 661.102C782.821 660.617 782.206 660.131 781.768 660.415C769.527 668.193 758.175 677.924 749.403 689.525C740.43 701.386 733.896 715.154 731.019 729.785C729.835 735.787 729.279 741.872 729.456 747.956C729.267 747.352 729.066 746.761 728.888 746.157C723.845 729.572 720.744 712.466 719.548 695.219C738.429 685.819 755.251 672.49 768.77 656.296C772.664 651.632 776.263 646.731 779.601 641.641C779.957 641.108 779.234 640.303 778.654 640.575C758.933 649.951 740.312 662.511 727.184 680.232C724.212 684.233 721.62 688.518 719.418 692.981C718.802 682.777 718.862 672.526 719.56 662.31C728.888 658.498 737.885 654.165 746.313 648.578C755.121 642.742 763.206 635.793 770.356 628.027C774.452 623.576 777.968 618.794 781.566 613.964C781.969 613.431 781.507 612.626 780.821 612.851C775.896 614.473 771.137 616.84 766.556 619.244C761.856 621.706 757.287 624.44 752.907 627.435C744.23 633.354 736.145 640.291 729.125 648.104C725.727 651.88 722.543 655.858 719.714 660.084C719.844 658.427 719.986 656.769 720.152 655.112C720.838 648.152 721.833 641.191 723.099 634.278C727.136 631.437 731.777 629.566 736.109 627.246C740.667 624.807 745.094 622.12 749.403 619.279C757.95 613.644 766.012 607.276 773.493 600.291C777.814 596.255 782.052 592.052 785.793 587.459C786.231 586.926 785.71 586.181 785.059 586.37C774.89 589.329 765.479 594.952 756.754 600.871C748.267 606.624 740.324 613.206 733.162 620.546C729.8 623.991 726.651 627.613 723.668 631.377C723.798 630.726 723.94 630.075 724.082 629.424C725.822 624.535 728.154 620.025 731.043 615.645C734.322 610.685 738.086 606.08 741.768 601.416C749.64 591.425 757.453 580.96 763.431 569.702C766.651 563.641 769.137 557.166 770.25 550.359C770.38 549.542 769.445 549.211 768.9 549.708C753.357 564.079 739.045 580.901 730.924 600.658C729.018 605.299 727.539 610.01 726.568 614.899C724.958 620.273 723.514 625.695 722.295 631.164C722.271 612.638 717.323 594.372 711.806 576.817C710.09 571.336 708.089 565.914 706.527 560.386C706.349 559.759 705.39 559.853 705.284 560.481C703.449 570.59 703.425 581.422 705.082 591.543C706.692 601.309 709.995 610.697 713.878 619.776C716.068 624.878 718.471 629.898 720.874 634.905C720.874 635.023 720.874 635.154 720.874 635.272C720.874 635.615 721.063 635.805 721.312 635.852C720.424 640.327 719.655 644.825 719.051 649.371C718.542 653.206 718.139 657.054 717.832 660.913C713.677 653.467 711.96 644.991 709.817 636.787C707.367 627.459 703.591 618.675 699.85 609.809C697.707 604.742 695.506 599.581 694.144 594.242C694.002 593.686 693.138 593.78 693.055 594.325C691.658 603.89 692.866 614.189 695.174 623.517C697.553 633.141 701.555 642.375 706.976 650.685C710.019 655.349 713.617 659.658 717.548 663.588C717.571 663.612 717.607 663.624 717.642 663.647C716.991 673.011 716.896 682.41 717.358 691.774C715.807 687.749 714.257 683.724 712.422 679.818C710.019 674.68 707.426 669.649 704.632 664.713C701.827 659.764 698.82 654.935 695.636 650.223C692.333 645.346 688.734 640.705 685.313 635.923C681.3 630.312 678.353 624.227 675.298 618.06C674.967 617.385 674.02 617.882 674.02 618.498C674.15 630.927 678.767 642.801 684.615 653.585C687.669 659.208 691.09 664.618 694.57 669.992C697.648 674.763 700.762 679.534 704.277 683.996C708.101 688.85 712.505 693.254 717.642 696.698C718.08 702.901 718.779 709.081 719.714 715.236C712.978 706.311 706.313 697.29 698.441 689.312C694.227 685.038 689.717 681.013 684.804 677.569C679.915 674.147 674.659 671.365 669.403 668.56C663.188 665.245 656.902 661.931 651.788 657.006C651.445 656.675 650.841 657.089 651.019 657.527C653.316 663.221 656.571 668.572 660.039 673.615C663.532 678.705 667.426 683.499 671.688 687.962C680.306 697.006 690.332 704.819 701.401 710.643C707.225 713.709 713.357 716.112 719.655 717.995C719.69 718.054 719.738 718.101 719.773 718.16C719.891 718.326 720.045 718.409 720.199 718.468C722.081 729.88 724.792 741.161 728.332 752.182C722.046 743.422 714.162 735.822 705.153 729.892C694.523 722.895 682.448 719.285 670.918 714.135C664.49 711.271 657.34 707.861 652.653 702.452C652.167 701.895 651.291 702.428 651.682 703.103C654.795 708.43 659.057 713.248 663.283 717.711C667.627 722.304 672.363 726.494 677.441 730.27C682.318 733.905 687.468 737.172 692.842 740.001C698.548 743.008 704.538 745.281 710.599 747.447C717.169 749.791 723.833 752.218 729.527 756.314C729.646 756.491 729.764 756.657 729.883 756.835C732.984 765.843 736.618 774.65 740.797 783.186C741.566 784.76 742.36 786.323 743.165 787.885C724.899 768.921 701.2 752.786 674.493 749.957C666.16 749.069 657.53 749.448 649.208 750.418C648.592 750.489 648.178 751.354 648.758 751.78C659.53 759.711 671.072 766.719 683.62 771.454C689.93 773.834 696.453 775.645 703.07 776.9C710.492 778.296 718.045 779.03 725.349 781.019C728.864 781.978 732.274 783.339 735.446 785.127C737.376 786.216 739.187 787.506 740.892 788.915C742.608 790.324 744.49 791.614 745.899 793.366C747.249 795.047 748.054 797.059 749.107 798.918C750.255 800.942 751.558 802.895 752.789 804.872C752.872 805.003 752.966 805.145 753.049 805.275C747.083 804.505 741.78 801.593 736.476 798.882C731.043 796.112 725.408 793.828 719.56 792.052C707.675 788.453 695.281 786.891 682.922 785.979C675.878 785.458 668.835 785.103 661.791 784.594C660.963 784.535 660.608 785.541 661.342 785.967C672.493 792.537 684.473 798.148 696.642 802.552C708.456 806.837 720.779 809.797 733.363 810.353C740.454 810.661 747.864 810.495 754.387 807.37C756.056 809.963 757.749 812.531 759.524 815.065C761.916 818.486 764.319 821.907 767.326 824.831C768.083 825.565 769.149 824.488 768.663 823.659C766.781 820.427 764.496 817.48 762.33 814.426C760.27 811.513 758.27 808.554 756.34 805.559C756.091 805.18 755.855 804.79 755.618 804.399C755.772 802.469 755.973 800.552 756.222 798.634C758.021 792.999 761.454 787.861 765.313 783.422C771.043 776.829 777.755 771.146 783.792 764.849C795.322 752.822 805.633 739.646 814.57 725.583C819.625 717.628 824.135 709.4 828.279 700.936C828.598 700.285 827.817 699.646 827.225 700.025V700.037ZM748.054 761.38C748.811 752.573 750.031 743.777 752.244 735.207C756.316 719.451 763.786 704.535 776.062 693.585C782.727 687.642 790.386 682.955 798.009 678.35C792.374 693.763 786.562 709.128 779.601 723.996C776.015 731.655 772.155 739.196 767.858 746.488C763.549 753.792 758.672 760.634 753.748 767.512C751.309 770.922 748.811 774.615 747.107 778.545C747.367 772.816 747.58 767.086 748.065 761.38H748.054ZM762.508 650.993C767.101 648.187 771.836 645.642 776.654 643.262C765.171 660.143 750.244 674.692 733.138 685.819C729.042 688.483 724.816 690.957 720.495 693.242C730.356 675.544 745.248 661.516 762.508 650.981V650.993ZM739.649 639.711C747.403 632.81 755.973 626.772 765.076 621.777C769.622 619.279 774.345 617.243 779.069 615.16C776.464 618.853 773.481 622.345 770.486 625.683C766.994 629.566 763.277 633.248 759.347 636.681C751.569 643.487 743.011 649.442 733.896 654.307C729.516 656.651 724.982 658.758 720.318 660.475C726.26 653.088 732.534 646.021 739.637 639.711H739.649ZM768.509 595.059C773.126 592.478 777.92 590.004 782.975 588.394C776.358 595.248 769.669 601.913 762.2 607.891C754.197 614.295 745.651 620.025 736.677 624.973C732.605 627.222 728.249 629.152 724.295 631.65C736.808 617.065 751.712 604.446 768.498 595.059H768.509ZM710.622 607.891C707.379 598.421 705.437 588.655 705.295 578.628C705.224 573.502 705.686 568.459 706.231 563.393C707.616 567.228 708.835 571.135 710.078 575.006C711.581 579.682 713.026 584.369 714.34 589.104C717.015 598.705 719.075 608.542 720.081 618.462C720.543 623.032 720.803 627.648 720.85 632.253C717.145 624.263 713.487 616.213 710.634 607.879L710.622 607.891ZM738.157 588.844C743.472 579.611 750.078 571.182 757.311 563.381C760.838 559.581 764.532 555.947 768.296 552.384C765.988 564.174 759.193 574.603 752.434 584.334C748.681 589.744 744.751 595.023 740.667 600.185C736.985 604.837 733.197 609.43 729.894 614.366C728.45 616.533 727.077 618.817 725.881 621.185C727.03 616.391 728.32 611.656 729.764 606.968C732.049 600.706 734.831 594.621 738.157 588.844ZM694.203 610.697C693.765 606.163 693.836 601.688 694.026 597.178C697.198 605.583 700.762 613.798 704.076 622.156C705.887 626.713 707.438 631.354 708.669 636.101C709.829 640.575 710.812 645.086 712.078 649.525C713.227 653.573 714.671 657.527 716.648 661.221C704.052 647.323 696.026 629.353 694.215 610.685L694.203 610.697ZM696.654 671.365C690.025 661.102 683.289 650.649 679.229 639.048C677.252 633.402 675.949 627.566 675.523 621.611C677.808 626.015 680.247 630.324 683.005 634.455C686.237 639.297 689.835 643.878 693.102 648.696C699.542 658.202 705.236 668.252 710.102 678.646C712.718 684.245 715.369 689.868 717.441 695.704C708.669 689.406 702.442 680.327 696.654 671.365ZM662.324 674.763C658.737 669.756 655.778 664.429 652.878 659.03C657.056 662.108 661.472 664.89 665.982 667.459C671.309 670.489 676.731 673.366 681.774 676.858C691.646 683.7 699.945 692.496 707.438 701.824C711.273 706.595 714.943 711.496 718.518 716.456C696.168 708.536 676.174 694.07 662.324 674.763ZM696.95 740.131C685.739 734.508 675.594 727.299 666.574 718.575C662.478 714.609 658.938 710.276 655.387 705.873C659.081 708.513 662.833 710.975 666.965 713.023C672.576 715.816 678.412 718.113 684.189 720.528C689.918 722.919 695.612 725.417 700.951 728.613C706.491 731.928 711.652 735.893 716.316 740.356C720.886 744.724 724.923 749.613 728.474 754.822C719.146 747.921 707.237 745.281 696.95 740.12V740.131ZM738.607 711.117C744.325 698.012 753.002 686.269 763.277 676.361C768.569 671.259 774.345 666.737 780.43 662.641C773.375 674.988 766.627 687.512 759.394 699.764C755.689 706.038 751.771 712.194 747.474 718.077C743.342 723.724 738.891 729.205 735.517 735.361C733.387 739.243 731.706 743.517 730.877 747.909C730.948 735.278 733.529 722.765 738.607 711.129V711.117ZM708.859 776.663C694.914 774.52 681.442 770.472 668.918 763.914C662.537 760.575 656.595 756.598 651.173 751.874C658.062 751.484 664.905 750.809 671.83 751.306C678.625 751.803 685.337 753.212 691.8 755.355C704.609 759.605 716.305 766.601 726.817 774.982C730.853 778.202 734.689 781.647 738.441 785.174C729.776 779.753 718.956 778.202 708.859 776.651V776.663ZM735.352 808.826C729.042 808.684 722.768 807.891 716.589 806.613C704.23 804.044 692.357 799.534 680.945 794.195C675.464 791.638 670.137 788.82 664.763 786.074C688.486 786.37 713.333 788.619 734.701 799.581C740.288 802.446 745.84 805.748 752.102 806.778C746.775 808.708 740.975 808.956 735.352 808.826ZM799.655 744.014C794.41 750.762 788.811 757.249 782.904 763.416C776.808 769.785 770.025 775.503 764.224 782.144C761.549 785.21 759.134 788.572 757.287 792.17C759.714 779.966 764.26 768.258 770.569 757.438C779.317 742.463 791.214 729.501 804.484 718.409C811.244 712.762 818.382 707.589 825.745 702.748C818.429 717.296 809.646 731.158 799.655 744.002V744.014Z" fill="#7F694F"/>
<path d="M1536.5 159.095C1521.71 167.796 1505.55 173.431 1488.44 175.088C1471.46 176.722 1454.11 174.674 1438.08 168.814C1422.14 162.99 1408.67 152.869 1394.6 143.682C1380.53 134.508 1365.87 127.086 1348.77 126.364C1329.63 125.559 1310.79 131.276 1291.63 129.915C1274.92 128.719 1259.01 121.013 1247.71 108.631C1237.79 97.7517 1232.93 82.0784 1220.23 73.8156C1212.93 69.0686 1204.16 68.5714 1195.71 69.3054C1186.67 70.0867 1177.71 71.6966 1168.67 72.6437C1151.41 74.443 1133.36 73.2947 1119.87 61.1255C1108.58 50.9568 1102.46 36.0885 1098.77 21.67C1097.8 17.8701 1097.02 14.0346 1096.36 10.1636C1096.28 9.76116 1095.65 9.78483 1095.7 10.1992C1098.03 24.9846 1101.91 40.1607 1110.37 52.7088C1114.42 58.7105 1119.52 63.9902 1125.67 67.873C1132.89 72.4306 1141.23 74.6324 1149.69 75.2953C1158.6 75.9938 1167.57 75.1414 1176.42 73.9458C1185.66 72.7028 1195.07 70.6431 1204.44 70.9982C1213.5 71.3533 1221 75.1888 1226.86 82.0192C1231.93 87.95 1235.62 94.9224 1239.93 101.386C1248.8 114.703 1261.86 124.683 1277.23 129.323C1295.54 134.84 1314.36 130.779 1332.9 128.968C1342.62 128.021 1352.49 127.784 1362.06 130.069C1370.34 132.046 1378.11 135.716 1385.45 139.989C1400.15 148.536 1413.34 159.604 1428.82 166.837C1459.36 181.09 1496.28 180.889 1526.85 166.79C1530.59 165.062 1534.19 163.132 1537.67 160.93C1538.85 160.184 1537.71 158.397 1536.51 159.107L1536.5 159.095Z" fill="#D3B379"/>
<path d="M1524.91 130.471C1507.33 133.111 1489.7 136.473 1471.84 134.828C1455.95 133.36 1441.25 128.009 1429.07 117.58C1423.6 112.892 1418.53 107.731 1412.56 103.671C1406.45 99.5155 1399.64 97.1125 1392.24 96.7218C1375.89 95.8577 1360.58 103.268 1344.82 106.334C1330.47 109.128 1314.6 109.353 1301.28 102.558C1287.89 95.7274 1280.91 82.2915 1271.16 71.5546C1266.34 66.2276 1260.69 61.8594 1254.06 59.0065C1247.66 56.2365 1240.74 54.887 1233.8 54.3779C1218.63 53.277 1203.77 56.3312 1188.83 58.4975C1172.91 60.8059 1155.78 62.2619 1140.66 55.5854C1127.58 49.8085 1117.66 37.9352 1113.54 24.3217C1112.51 20.9124 1111.91 17.4203 1111.7 13.8571C1111.67 13.4783 1111.09 13.502 1111.11 13.8926C1111.63 27.589 1117.78 40.6106 1128.18 49.5836C1139.91 59.7168 1155.36 62.6407 1170.47 62.1554C1186.44 61.6464 1202.03 57.7636 1217.92 56.5443C1232.85 55.396 1249.02 56.4377 1261.64 65.3753C1273.72 73.934 1280.11 87.9973 1291.1 97.6925C1302 107.317 1316.6 110.525 1330.83 109.98C1338.12 109.696 1345.39 108.5 1352.46 106.713C1360.74 104.618 1368.89 101.871 1377.28 100.202C1385.93 98.4857 1395.11 97.9885 1403.49 101.197C1410.45 103.86 1416.19 108.737 1421.69 113.626C1427.29 118.598 1432.81 123.629 1439.36 127.346C1446.08 131.158 1453.49 133.739 1461.04 135.325C1477.95 138.888 1495.37 137.361 1512.3 134.816C1516.65 134.165 1520.98 133.431 1525.3 132.626C1526.52 132.401 1526.14 130.294 1524.91 130.483V130.471Z" fill="#D3B379"/>
<path d="M1536.67 159.221C1551.45 167.921 1567.61 173.556 1584.73 175.213C1601.71 176.847 1619.06 174.799 1635.09 168.939C1651.02 163.115 1664.49 152.994 1678.57 143.808C1692.63 134.633 1707.3 127.211 1724.39 126.489C1743.54 125.684 1762.38 131.402 1781.53 130.04C1798.25 128.845 1814.16 121.138 1825.45 108.756C1835.37 97.877 1840.24 82.2037 1852.94 73.9409C1860.23 69.1939 1869 68.6968 1877.46 69.4307C1886.5 70.212 1895.46 71.8219 1904.49 72.769C1921.75 74.5683 1939.81 73.42 1953.3 61.2508C1964.58 51.0821 1970.7 36.2138 1974.4 21.7953C1975.37 17.9954 1976.15 14.1599 1976.81 10.2889C1976.88 9.88646 1977.52 9.91014 1977.46 10.3245C1975.14 25.1099 1971.26 40.286 1962.8 52.8341C1958.75 58.8358 1953.64 64.1155 1947.5 67.9983C1940.28 72.5559 1931.93 74.7577 1923.48 75.4206C1914.57 76.1191 1905.6 75.2667 1896.75 74.0711C1887.51 72.8281 1878.1 70.7684 1868.73 71.1235C1859.66 71.4786 1852.17 75.3141 1846.31 82.1445C1841.23 88.0753 1837.55 95.0477 1833.24 101.511C1824.36 114.829 1811.31 124.808 1795.94 129.448C1777.63 134.965 1758.81 130.905 1740.27 129.093C1730.55 128.146 1720.68 127.91 1711.11 130.194C1702.83 132.171 1695.06 135.841 1687.72 140.114C1673.02 148.661 1659.83 159.73 1644.35 166.963C1613.8 181.215 1576.88 181.014 1546.32 166.915C1542.58 165.187 1538.98 163.257 1535.5 161.055C1534.31 160.31 1535.46 158.522 1536.66 159.232L1536.67 159.221Z" fill="#D3B379"/>
<path d="M1523.26 130.597C1540.84 133.237 1558.46 136.599 1576.33 134.953C1592.21 133.485 1606.92 128.134 1619.1 117.705C1624.57 113.018 1629.63 107.856 1635.61 103.796C1641.72 99.6408 1648.53 97.2378 1655.92 96.8471C1672.27 95.983 1687.59 103.393 1703.35 106.459C1717.69 109.253 1733.57 109.478 1746.89 102.683C1760.28 95.8527 1767.26 82.4168 1777 71.6799C1781.83 66.3529 1787.48 61.9848 1794.11 59.1318C1800.51 56.3618 1807.43 55.0123 1814.36 54.5032C1829.54 53.4023 1844.39 56.4565 1859.33 58.6228C1875.26 60.9312 1892.39 62.3872 1907.5 55.7107C1920.58 49.9339 1930.5 38.0605 1934.62 24.447C1935.65 21.0377 1936.26 17.5456 1936.47 13.9824C1936.49 13.6036 1937.07 13.6273 1937.06 14.0179C1936.54 27.7143 1930.38 40.7359 1919.99 49.7089C1908.26 59.8421 1892.81 62.7661 1877.69 62.2807C1861.73 61.7717 1846.14 57.8889 1830.25 56.6696C1815.32 55.5213 1799.15 56.563 1786.53 65.5006C1774.45 74.0593 1768.05 88.1227 1757.07 97.8178C1746.16 107.442 1731.57 110.65 1717.34 110.105C1710.05 109.821 1702.78 108.626 1695.71 106.838C1687.43 104.743 1679.28 101.997 1670.89 100.327C1662.23 98.611 1653.06 98.1138 1644.68 101.322C1637.72 103.985 1631.98 108.863 1626.47 113.752C1620.87 118.723 1615.36 123.754 1608.81 127.472C1602.09 131.283 1594.68 133.864 1587.12 135.45C1570.22 139.013 1552.79 137.486 1535.87 134.941C1531.52 134.29 1527.19 133.556 1522.87 132.751C1521.65 132.526 1522.03 130.419 1523.26 130.609V130.597Z" fill="#D3B379"/>
<path d="M1506.04 639.438C1452.44 640.231 1404.73 664.741 1352.2 670.66C1324.9 673.744 1296.84 670.866 1271.21 662.178C1258.97 658.03 1246.73 652.828 1236.6 645.53C1234.42 643.956 1232.11 642.088 1229.94 640.014C1230 639.981 1230.06 639.949 1230.13 639.916C1239.12 635.225 1248.63 627.764 1247.49 617.86C1246.6 610.172 1239.05 602.885 1229.42 605.567C1217.48 608.89 1215.68 620.89 1219.79 629.643C1221.47 633.227 1223.83 636.495 1226.63 639.493C1225.98 639.797 1225.35 640.101 1224.71 640.383C1201.35 650.993 1174.85 654.587 1148.86 657.009C1123.29 659.387 1097.44 660.723 1072.45 666.272C1049.93 671.268 1028.48 679.51 1008.74 690.011C968.366 711.481 935.102 741.931 908.352 775.335C905.108 779.396 901.953 783.501 898.874 787.661C898.101 788.703 900.128 789.572 900.889 788.529C927.689 751.878 961.713 718.083 1004.15 694.203C1025.02 682.453 1047.89 673.32 1072.07 667.89C1098.87 661.885 1126.7 660.984 1154.11 658.377C1179.45 655.966 1205.68 652.035 1228.03 640.948C1232.89 645.737 1238.84 649.777 1244.94 653.176C1268.05 666.044 1295.83 672.994 1323.25 674.069C1380.23 676.306 1430.31 649.331 1485.42 642.153C1492.27 641.263 1499.17 640.731 1506.09 640.568C1506.95 640.546 1506.88 639.417 1506.03 639.427L1506.04 639.438ZM1220.74 614.711C1223.16 609.694 1229.52 605.426 1236.11 606.816C1241.63 607.989 1244.85 612.745 1245.53 617.317C1246.98 627.069 1237.56 633.976 1228.48 638.591C1221.77 631.76 1216.74 622.986 1220.74 614.711Z" fill="#7F694F"/>
<path d="M1505.66 639.438C1559.26 640.231 1606.97 664.741 1659.5 670.66C1686.8 673.744 1714.86 670.866 1740.49 662.178C1752.73 658.03 1764.98 652.828 1775.1 645.53C1777.28 643.956 1779.59 642.088 1781.77 640.014C1781.7 639.981 1781.64 639.949 1781.58 639.916C1772.58 635.225 1763.08 627.764 1764.22 617.86C1765.1 610.172 1772.65 602.885 1782.29 605.567C1794.22 608.89 1796.02 620.89 1791.92 629.643C1790.23 633.227 1787.87 636.495 1785.07 639.493C1785.72 639.797 1786.35 640.101 1786.99 640.383C1810.35 650.993 1836.85 654.587 1862.84 657.009C1888.41 659.387 1914.26 660.723 1939.25 666.272C1961.77 671.268 1983.22 679.51 2002.96 690.011C2043.34 711.481 2076.6 741.931 2103.35 775.335C2106.59 779.396 2109.75 783.501 2112.83 787.661C2113.6 788.703 2111.57 789.572 2110.81 788.529C2084.01 751.878 2049.99 718.083 2007.55 694.203C1986.68 682.453 1963.81 673.32 1939.63 667.89C1912.83 661.885 1885 660.984 1857.59 658.377C1832.25 655.966 1806.02 652.035 1783.67 640.948C1778.81 645.737 1772.86 649.777 1766.76 653.176C1743.65 666.044 1715.87 672.994 1688.45 674.069C1631.47 676.306 1581.39 649.331 1526.28 642.153C1519.44 641.263 1512.53 640.731 1505.61 640.568C1504.75 640.546 1504.83 639.417 1505.67 639.427L1505.66 639.438ZM1790.97 614.711C1788.55 609.694 1782.18 605.426 1775.59 606.816C1770.07 607.989 1766.85 612.745 1766.17 617.317C1764.72 627.069 1774.14 633.976 1783.22 638.591C1789.93 631.76 1794.96 622.986 1790.97 614.711Z" fill="#7F694F"/>
<path d="M763.054 -23.6831C743.581 1.44858 717.254 20.2352 686.392 28.498C678.52 30.6051 670.482 31.931 662.362 32.5821C652.844 33.3515 643.267 33.4225 633.773 34.4287C617.97 36.1216 603.469 41.2355 590.127 49.8889C563.717 67.0064 544.481 92.7537 521.752 114.085C497.047 137.264 468.292 157.175 435.727 167.403C403.871 177.406 367.943 177.43 337.153 163.686C333.436 162.029 329.825 160.146 326.31 158.087C326.061 157.945 325.872 158.335 326.108 158.489C354.649 176.151 389.441 179.596 421.888 172.777C455.141 165.793 485.173 147.953 510.849 126.172C523.492 115.447 534.975 103.573 546.375 91.5581C557.301 80.0399 568.298 68.4625 580.799 58.6371C593.051 49.0129 606.866 41.2 622.208 37.8617C640.604 33.8605 659.698 36.1571 678.201 32.807C708.884 27.2432 738.23 10.6466 758.165 -13.4434C760.544 -16.32 762.675 -19.3978 764.735 -22.4993C765.374 -23.47 763.753 -24.5709 763.042 -23.6594L763.054 -23.6831Z" fill="#BC825B"/>
<path d="M-161.219 352.093C-131.887 339.827 -106.899 319.293 -90.8935 291.643C-86.8113 284.59 -83.4405 277.173 -80.6995 269.501C-77.481 260.512 -74.9214 251.283 -71.4804 242.377C-65.7353 227.558 -57.0255 214.886 -45.1998 204.255C-21.802 183.206 8.06251 171.329 34.5719 154.931C63.3786 137.105 90.0835 114.519 108.43 85.7348C126.374 57.5775 135.742 22.8925 130.48 -10.4126C129.847 -14.4329 128.969 -18.4087 127.894 -22.3393C127.822 -22.6163 128.248 -22.6975 128.335 -22.4289C137.966 9.7237 132.242 44.2136 117.219 73.7706C101.826 104.062 76.7885 128.42 49.0781 147.547C35.4337 156.965 20.9824 164.965 6.41539 172.847C-7.54835 180.401 -21.5877 188.008 -34.3264 197.523C-46.8062 206.85 -57.9435 218.157 -65.1573 232.103C-73.8057 248.825 -76.5548 267.859 -84.6022 284.854C-97.9554 313.034 -121.614 337.053 -150.06 350.036C-153.456 351.585 -156.982 352.842 -160.513 354.024C-161.616 354.389 -162.258 352.537 -161.193 352.088L-161.219 352.093Z" fill="#BC825B"/>
</g>
<defs>
<clipPath id="clip0_2016_248">
<rect width="1920" height="728" fill="white"/>
</clipPath>
</defs>
</svg>
